<svg width="32" height="32" viewBox="0 0 32 32" fill="none" xmlns="http://www.w3.org/2000/svg">
<path d="M0 16C0 7.16344 7.16344 0 16 0C24.8366 0 32 7.16344 32 16C32 24.8366 24.8366 32 16 32C7.16344 32 0 24.8366 0 16Z" fill="white"/>
<mask id="mask0_2209_6322" style="mask-type:alpha" maskUnits="userSpaceOnUse" x="9" y="9" width="14" height="14">
<path d="M20.6665 21.8332C20.9886 22.1554 21.511 22.1554 21.8332 21.8332C22.1554 21.511 22.1554 20.9886 21.8332 20.6664L17.1665 15.9998L21.8332 11.3332C22.1554 11.011 22.1554 10.4886 21.8332 10.1664C21.511 9.84426 20.9886 9.84426 20.6664 10.1664L15.9998 14.8331L11.3332 10.1664C11.011 9.84426 10.4886 9.84426 10.1665 10.1664C9.84427 10.4886 9.84427 11.011 10.1665 11.3332L14.8331 15.9998L10.1664 20.6664C9.84426 20.9886 9.84426 21.511 10.1664 21.8332C10.4886 22.1554 11.011 22.1554 11.3332 21.8332L15.9998 17.1665L20.6665 21.8332Z" fill="#333333"/>
</mask>
<g mask="url(#mask0_2209_6322)">
<rect x="7" y="7" width="18" height="18" fill="#333333"/>
</g>
</svg>
