<svg width="32" height="32" viewBox="0 0 32 32" fill="none" xmlns="http://www.w3.org/2000/svg">
<path d="M0 16C0 7.16344 7.16344 0 16 0C24.8366 0 32 7.16344 32 16C32 24.8366 24.8366 32 16 32C7.16344 32 0 24.8366 0 16Z" fill="white"/>
<mask id="mask0_2113_7771" style="mask-type:alpha" maskUnits="userSpaceOnUse" x="8" y="9" width="16" height="15">
<path fill-rule="evenodd" clip-rule="evenodd" d="M13.8172 9.71964L16 11.9319L18.1828 9.71964C19.1885 8.70028 20.875 9.44357 20.875 10.8377V12.2498C22.1176 12.2498 23.125 13.2572 23.125 14.4998V16.0195C23.125 16.4071 22.8311 16.726 22.4539 16.7654V20.8748C22.4539 22.1175 21.4466 23.1248 20.2039 23.1248H11.7961C10.5534 23.1248 9.54605 22.1175 9.54605 20.8748V16.7654C9.16895 16.726 8.875 16.4071 8.875 16.0195V14.4998C8.875 13.2572 9.88236 12.2498 11.125 12.2498V10.8377C11.125 9.44357 12.8115 8.70028 13.8172 9.71964ZM12.625 10.8377C12.625 10.8055 12.6331 10.7918 12.6378 10.7851C12.6447 10.7751 12.657 10.7641 12.6746 10.7567C12.6922 10.7493 12.7067 10.7491 12.7145 10.7505C12.7183 10.7512 12.7298 10.7532 12.7495 10.7731L14.2064 12.2498H12.625V10.8377ZM14.0954 13.7498L11.125 13.7498C10.7108 13.7498 10.375 14.0856 10.375 14.4998V15.1636C10.4519 15.1241 10.5392 15.1018 10.6316 15.1018H14.0954V13.7498ZM11.0461 16.2268V20.8748C11.0461 21.289 11.3818 21.6248 11.7961 21.6248H14.0954V16.2268H11.0461ZM15.2204 21.6248H16.7796V16.2268H15.2204V21.6248ZM17.9046 21.6248H20.2039C20.6182 21.6248 20.9539 21.289 20.9539 20.8748V16.2268H17.9046V21.6248ZM21.625 15.1018V14.4998C21.625 14.0856 21.2892 13.7498 20.875 13.7498L17.9046 13.7498V15.1018H21.625ZM16.7796 13.7498H15.2204V15.1018H16.7796V13.7498ZM19.2505 10.7731L17.7936 12.2498H19.375V10.8377C19.375 10.8055 19.3669 10.7918 19.3622 10.7851C19.3553 10.7751 19.343 10.7641 19.3254 10.7567C19.3078 10.7493 19.2933 10.7491 19.2855 10.7505C19.2817 10.7512 19.2702 10.7532 19.2505 10.7731Z" fill="#333333"/>
</mask>
<g mask="url(#mask0_2113_7771)">
<rect x="7" y="7" width="18" height="18" fill="#333333"/>
</g>
</svg>
