<svg width="72" height="72" viewBox="0 0 72 72" fill="none" xmlns="http://www.w3.org/2000/svg">
<path d="M72 35.782C72 55.5439 55.7143 75.1928 36 71.5641C12.8571 67.3043 0 55.5439 0 35.782C0 16.0202 16.1178 0 36 0C60 0 72 16.0202 72 35.782Z" fill="black" fill-opacity="0.8"/>
<g clip-path="url(#clip0_5845_30421)">
<path d="M23.8757 48.8121C22.4547 48.551 21.041 48.2453 19.6395 47.8835C18.2379 47.521 16.8481 47.104 15.479 46.6102C14.1103 46.1158 12.7612 45.5474 11.4572 44.8542C10.8064 44.5063 10.1666 44.1277 9.55029 43.6996C8.93452 43.2714 8.33881 42.7971 7.79493 42.2443C7.52354 41.9676 7.26498 41.6719 7.02981 41.3507C6.79576 41.0283 6.58401 40.6809 6.41181 40.3063C6.24352 39.9299 6.11089 39.5285 6.04848 39.1093C6.01449 38.901 6 38.6884 6 38.4774L6.00223 38.3193L6.01449 38.1617L6.02786 38.0047C6.03399 37.9524 6.04402 37.9011 6.05238 37.8494C6.1187 37.4352 6.25077 37.0399 6.4263 36.6774C6.60184 36.315 6.81861 35.9832 7.06213 35.6842C7.30454 35.3847 7.56924 35.113 7.84564 34.8608C8.12538 34.6136 8.41516 34.3842 8.71385 34.1721C9.91418 33.3325 11.221 32.7318 12.5489 32.2347C13.8791 31.7397 15.2399 31.3584 16.6108 31.041C15.28 31.4964 13.9716 32.0142 12.7211 32.6322C12.0964 32.9412 11.4862 33.2758 10.9005 33.6421C10.3171 34.0101 9.75871 34.4115 9.24882 34.8536C8.99526 35.0763 8.7562 35.3095 8.53218 35.5523C8.31262 35.7983 8.11145 36.0544 7.9387 36.3206C7.59042 36.8522 7.3742 37.4329 7.34466 37.9997C7.309 38.5681 7.46949 39.1165 7.76428 39.6176C7.91362 39.8675 8.09473 40.1069 8.29813 40.333C8.5032 40.559 8.73168 40.7717 8.97464 40.9727C9.46225 41.3746 10.0095 41.7282 10.584 42.0449C11.1591 42.3623 11.7637 42.6412 12.3828 42.894C13.6227 43.3978 14.9206 43.7948 16.2391 44.1227C17.5581 44.4495 18.9 44.7067 20.2513 44.911C21.6027 45.1148 22.9641 45.2657 24.3293 45.3737L23.8752 48.8104L23.8757 48.8121Z" fill="white"/>
<path d="M22.6577 40.2034L33.6814 47.7015L21.6714 53.4916L22.6577 40.2034Z" fill="white"/>
<path d="M53.6048 30.5483C57.4482 31.3094 65.3128 33.3888 65.9732 37.9424C66.4156 41.849 61.3284 44.4484 58.2774 45.6872C53.7826 47.4743 48.9974 48.4063 44.2083 48.9519C42.293 49.1634 40.3699 49.3015 38.4424 49.3717V46.0312C42.1376 46.1676 45.8534 46.0529 49.5257 45.6087C52.2746 45.2707 54.998 44.7602 57.6349 43.9217C60.205 43.1006 65.509 40.9794 64.8341 37.6028C63.9709 33.8838 56.9578 31.4592 53.6048 30.5489V30.5483Z" fill="white"/>
<path d="M22.8764 28.5798H24.0751C25.0252 28.5798 25.5 28.1155 25.5 27.1863C25.5 26.825 25.3869 26.5299 25.1606 26.3011C24.9344 26.0728 24.6151 25.9581 24.2032 25.9581C23.8667 25.9581 23.5735 26.0561 23.325 26.2521C23.0759 26.448 22.9516 26.6913 22.9516 26.9825H20.4105C20.4105 26.4052 20.5716 25.8902 20.8931 25.4381C21.2147 24.9861 21.661 24.6336 22.2317 24.3798C22.8023 24.1264 23.4292 23.9995 24.113 23.9995C25.3345 23.9995 26.2946 24.2784 26.9929 24.8357C27.6917 25.393 28.0411 26.1591 28.0411 27.1334C28.0411 27.6055 27.8968 28.0515 27.6075 28.4707C27.3183 28.8899 26.8976 29.2301 26.3448 29.4912C26.9277 29.7022 27.3852 30.0223 27.7168 30.4515C28.0483 30.8808 28.2144 31.4119 28.2144 32.0449C28.2144 33.0242 27.8377 33.8076 27.0837 34.3949C26.3297 34.9823 25.3395 35.2762 24.113 35.2762C23.3941 35.2762 22.7271 35.1393 22.1113 34.8659C21.4955 34.592 21.0291 34.2134 20.7126 33.7285C20.3961 33.2441 20.2378 32.693 20.2378 32.075H22.7939C22.7939 32.4113 22.9299 32.703 23.2013 32.9485C23.4727 33.1946 23.807 33.3176 24.2044 33.3176C24.6518 33.3176 25.0085 33.1935 25.2749 32.9446C25.5412 32.6963 25.6744 32.3784 25.6744 31.9915C25.6744 31.4392 25.5362 31.0473 25.2598 30.8162C24.9834 30.5852 24.6011 30.4699 24.1135 30.4699H22.877V28.5792L22.8764 28.5798Z" fill="white"/>
<path d="M35.634 24.0001V25.996H35.5208C34.5707 25.996 33.7905 26.2231 33.1798 26.6774C32.569 27.1317 32.1934 27.7636 32.0525 28.572C32.6253 28.0097 33.3492 27.7285 34.2241 27.7285C35.1742 27.7285 35.9304 28.0748 36.4938 28.768C37.0566 29.4611 37.338 30.3697 37.338 31.4949C37.338 32.193 37.1731 32.8333 36.8443 33.4156C36.515 33.998 36.0552 34.4539 35.4645 34.783C34.8739 35.112 34.2191 35.2762 33.5002 35.2762C32.7212 35.2762 32.0251 35.0992 31.4116 34.7451C30.7981 34.391 30.3211 33.885 29.9789 33.2274C29.6373 32.5694 29.4612 31.8111 29.4512 30.9526V29.9355C29.4512 28.8053 29.6936 27.7898 30.179 26.8884C30.6638 25.9871 31.3564 25.28 32.2564 24.7678C33.1558 24.2556 34.1539 23.9995 35.2494 23.9995H35.634V24.0001ZM33.3419 29.6721C33.0054 29.6721 32.724 29.7501 32.4977 29.9054C32.2715 30.0613 32.1032 30.2517 31.9923 30.4777V31.2388C31.9923 32.6251 32.4721 33.3176 33.4322 33.3176C33.8195 33.3176 34.1422 33.1445 34.4013 32.7976C34.6599 32.4514 34.7897 32.0171 34.7897 31.4943C34.7897 30.9715 34.6576 30.5189 34.3941 30.1799C34.1299 29.8408 33.7794 29.6716 33.3425 29.6716L33.3419 29.6721Z" fill="white"/>
<path d="M46.0611 30.6441C46.0611 32.1256 45.7279 33.268 45.0619 34.0714C44.396 34.8748 43.457 35.2767 42.2456 35.2767C41.0341 35.2767 40.0789 34.8726 39.4108 34.0642C38.7421 33.2558 38.4077 32.1156 38.4077 30.6441V28.6404C38.4077 27.1589 38.7404 26.0165 39.4069 25.2132C40.0728 24.4098 41.014 24.0078 42.2305 24.0078C43.447 24.0078 44.3893 24.412 45.058 25.2204C45.7267 26.0288 46.0611 27.1712 46.0611 28.6477V30.6436V30.6441ZM43.52 28.3164C43.52 27.5281 43.4169 26.939 43.2107 26.5499C43.0045 26.1607 42.678 25.9659 42.2305 25.9659C41.783 25.9659 41.4754 26.1468 41.2765 26.5081C41.0781 26.8694 40.9711 27.4173 40.9561 28.1505V30.9526C40.9561 31.771 41.0592 32.37 41.2653 32.7492C41.4715 33.1283 41.7981 33.3176 42.2456 33.3176C42.693 33.3176 42.9967 33.1333 43.2029 32.7642C43.4091 32.3951 43.5144 31.8166 43.5194 31.0277V28.3159L43.52 28.3164Z" fill="white"/>
<path d="M47.5913 26.6818C47.5913 25.8785 47.8315 25.2315 48.3113 24.7421C48.7911 24.2528 49.4208 24.0078 50.1998 24.0078C50.9789 24.0078 51.6097 24.2517 52.0923 24.7383C52.5749 25.2254 52.8162 25.8857 52.8162 26.7191V27.2614C52.8162 28.0598 52.5799 28.7039 52.1073 29.1938C51.6348 29.6832 51.004 29.9282 50.2149 29.9282C49.4258 29.9282 48.785 29.6821 48.3074 29.1899C47.8298 28.6978 47.5913 28.0425 47.5913 27.2241V26.6818ZM48.9109 27.2619C48.9109 27.7541 49.0279 28.1383 49.2614 28.4144C49.4949 28.6905 49.8131 28.8286 50.2154 28.8286C50.6178 28.8286 50.9176 28.6928 51.1466 28.4216C51.3751 28.1505 51.4921 27.7714 51.4971 27.2842V26.6818C51.4971 26.1947 51.3801 25.8133 51.1466 25.5366C50.9131 25.2605 50.5972 25.1224 50.2004 25.1224C49.8036 25.1224 49.4955 25.2594 49.262 25.5327C49.0285 25.8066 48.9115 26.1991 48.9115 26.7113V27.2614L48.9109 27.2619Z" fill="white"/>
</g>
<defs>
<clipPath id="clip0_5845_30421">
<rect width="60" height="29.4915" fill="white" transform="translate(6 24)"/>
</clipPath>
</defs>
</svg>
