<svg width="25" height="24" viewBox="0 0 25 24" fill="none" xmlns="http://www.w3.org/2000/svg">
<mask id="mask0_4955_10551" style="mask-type:alpha" maskUnits="userSpaceOnUse" x="5" y="4" width="15" height="16">
<path d="M13.5999 5.9999C13.5999 5.39239 13.1074 4.8999 12.4999 4.8999C11.8924 4.8999 11.3999 5.39239 11.3999 5.9999V10.8999H6.4999C5.89239 10.8999 5.3999 11.3924 5.3999 11.9999C5.3999 12.6074 5.89239 13.0999 6.4999 13.0999H11.3999V17.9999C11.3999 18.6074 11.8924 19.0999 12.4999 19.0999C13.1074 19.0999 13.5999 18.6074 13.5999 17.9999V13.0999H18.4999C19.1074 13.0999 19.5999 12.6074 19.5999 11.9999C19.5999 11.3924 19.1074 10.8999 18.4999 10.8999H13.5999V5.9999Z" fill="black"/>
</mask>
<g mask="url(#mask0_4955_10551)">
<rect x="0.5" width="24" height="24" fill="#666666"/>
</g>
</svg>
