<svg width="24" height="24" viewBox="0 0 24 24" fill="none" xmlns="http://www.w3.org/2000/svg">
<path fill-rule="evenodd" clip-rule="evenodd" d="M1.43597 3.18404C1 4.03969 1 5.15979 1 7.4V16.6C1 18.8402 1 19.9603 1.43597 20.816C1.81947 21.5686 2.43139 22.1805 3.18404 22.564C4.03969 23 5.15979 23 7.4 23H16.6C18.8402 23 19.9603 23 20.816 22.564C21.5686 22.1805 22.1805 21.5686 22.564 20.816C23 19.9603 23 18.8402 23 16.6V7.4C23 5.15979 23 4.03969 22.564 3.18404C22.1805 2.43139 21.5686 1.81947 20.816 1.43597C19.9603 1 18.8402 1 16.6 1H7.4C5.15979 1 4.03969 1 3.18404 1.43597C2.43139 1.81947 1.81947 2.43139 1.43597 3.18404ZM7.88388 10.116C7.39573 9.62788 6.60427 9.62788 6.11612 10.116C5.62796 10.6042 5.62796 11.3957 6.11612 11.8838L10.0324 15.8001C10.5206 16.2882 11.312 16.2882 11.8002 15.8001L18.1641 9.43613C18.6523 8.94797 18.6523 8.15652 18.1641 7.66836C17.676 7.18021 16.8845 7.18021 16.3964 7.66836L10.9163 13.1484L7.88388 10.116Z" fill="#333333"/>
</svg>
