<svg width="24" height="24" viewBox="0 0 24 24" fill="none" xmlns="http://www.w3.org/2000/svg">
<path d="M18.2221 19.7777C18.6517 20.2073 19.3482 20.2073 19.7777 19.7777C20.2073 19.3481 20.2073 18.6517 19.7777 18.2221L13.5555 11.9999L19.7777 5.77772C20.2073 5.34814 20.2073 4.65166 19.7777 4.22209C19.3481 3.79251 18.6517 3.79251 18.2221 4.22209L11.9999 10.4443L5.77773 4.22208C5.34816 3.79251 4.65167 3.79251 4.2221 4.22208C3.79252 4.65166 3.79252 5.34814 4.2221 5.77772L10.4443 11.9999L4.22208 18.2221C3.79251 18.6517 3.79251 19.3481 4.22208 19.7777C4.65166 20.2073 5.34814 20.2073 5.77772 19.7777L11.9999 13.5555L18.2221 19.7777Z" fill="black"/>
</svg>
