<svg width="145" height="164" viewBox="0 0 145 164" fill="none" xmlns="http://www.w3.org/2000/svg">
<g clip-path="url(#clip0_5577_30417)">
<path d="M74.42 163.63C109.33 163.63 137.63 157.492 137.63 149.92C137.63 142.348 109.33 136.21 74.42 136.21C39.51 136.21 11.21 142.348 11.21 149.92C11.21 157.492 39.51 163.63 74.42 163.63Z" fill="#7F7F7F"/>
<path d="M130.14 30.84C126.88 27.63 123.62 24.41 120.36 21.2C84.6499 -22.21 11.3199 13.59 1.56995 63.46C-3.95005 90.39 5.48995 104.78 22.7999 120.31C73.3199 181.7 182.44 90.07 130.13 30.83L130.14 30.84Z" fill="#AAAAAA"/>
<path d="M112.28 11.66C112.28 11.66 122.92 22.42 127.5 27.05C127.5 27.05 129.5 28.97 130.52 29.99C135.07 34.54 151.03 52.01 141.09 83.85L126.96 71.66C126.96 71.66 139.08 35.91 112.28 11.67V11.66Z" fill="#CCCCCC"/>
<path d="M102.44 106.736C131.803 81.8958 139.067 42.2071 118.664 18.0889C98.2609 -6.02925 57.9171 -5.44377 28.5537 19.3966C-0.809754 44.237 -8.07356 83.9258 12.3295 108.044C32.7326 132.162 73.0763 131.577 102.44 106.736Z" fill="white"/>
<path d="M100.41 104.334C129.773 79.4934 137.491 40.3413 117.648 16.8852C97.8047 -6.57103 57.9149 -5.44889 28.5515 19.3915C-0.811951 44.2319 -8.52974 83.384 11.3133 106.84C31.1564 130.296 71.0462 129.174 100.41 104.334Z" fill="#CCCCCC"/>
<path d="M78.6199 95.31C75.3099 95.31 72.4699 93.89 70.8199 91.42L60.6899 76.25L42.3599 88.22C40.2899 89.57 37.9499 90.29 35.5999 90.29C32.2899 90.29 29.4499 88.87 27.7999 86.4C26.5399 84.51 26.1199 82.17 26.5999 79.8C27.1999 76.88 29.0999 74.19 31.8299 72.41L50.1399 60.45L40.0199 45.29C38.7599 43.41 38.3399 41.06 38.8199 38.7C39.4199 35.78 41.3199 33.09 44.0499 31.31C46.1199 29.96 48.4599 29.24 50.7999 29.24C54.1099 29.24 56.9499 30.66 58.5999 33.13L68.7299 48.3L87.0499 36.33C89.1199 34.98 91.4599 34.26 93.8099 34.26C97.1199 34.26 99.9599 35.68 101.61 38.15C102.87 40.04 103.29 42.38 102.81 44.75C102.21 47.67 100.31 50.36 97.5799 52.14L79.2699 64.1L89.3899 79.26C90.6499 81.14 91.0699 83.49 90.5899 85.85C89.9899 88.77 88.0899 91.46 85.3599 93.24C83.2899 94.59 80.9499 95.31 78.6099 95.31H78.6199Z" fill="black"/>
<path d="M50.8199 30.24C53.6599 30.24 56.28 31.42 57.79 33.68L68.47 49.68L87.62 37.16C89.58 35.88 91.77 35.25 93.8299 35.25C96.6699 35.25 99.2899 36.43 100.8 38.69C103.4 42.59 101.73 48.23 97.0599 51.28L77.91 63.8L88.5899 79.8C91.1899 83.7 89.52 89.34 84.8499 92.39C82.8899 93.67 80.7 94.3 78.6399 94.3C75.7999 94.3 73.1799 93.12 71.6699 90.86L60.99 74.86L41.8399 87.38C39.8699 88.66 37.69 89.29 35.63 89.29C32.79 89.29 30.1699 88.11 28.6599 85.85C26.0599 81.95 27.73 76.31 32.4 73.26L51.5499 60.74L40.8699 44.74C38.2699 40.84 39.9399 35.2 44.6099 32.15C46.5799 30.87 48.7599 30.24 50.8199 30.24ZM50.8199 28.24C48.2799 28.24 45.7499 29.01 43.5199 30.47C40.5699 32.4 38.5099 35.32 37.86 38.5C37.32 41.13 37.7999 43.74 39.2099 45.85L48.7699 60.17L31.3099 71.58C28.3599 73.51 26.2999 76.43 25.6499 79.61C25.1099 82.24 25.5899 84.85 26.9999 86.96C28.8399 89.71 31.98 91.29 35.63 91.29C38.17 91.29 40.6999 90.52 42.9299 89.06L60.43 77.63L70.01 91.98C71.85 94.73 74.9899 96.31 78.6399 96.31C81.18 96.31 83.71 95.54 85.94 94.08C88.89 92.15 90.9499 89.23 91.5999 86.05C92.1399 83.42 91.66 80.81 90.2499 78.7L80.69 64.38L98.1499 52.97C101.1 51.04 103.16 48.12 103.81 44.94C104.35 42.31 103.87 39.7 102.46 37.59C100.62 34.84 97.4799 33.26 93.8299 33.26C91.2899 33.26 88.7599 34.03 86.5299 35.49L69.0299 46.92L59.45 32.57C57.61 29.82 54.4699 28.24 50.8199 28.24Z" fill="black"/>
<path d="M77.98 94.45C74.67 94.45 71.83 93.03 70.18 90.56L60.05 75.39L41.72 87.36C39.65 88.71 37.31 89.43 34.96 89.43C31.65 89.43 28.81 88.01 27.16 85.54C25.9 83.66 25.48 81.31 25.96 78.95C26.56 76.03 28.46 73.34 31.19 71.56L49.5 59.6L39.38 44.44C38.12 42.56 37.7 40.21 38.18 37.85C38.78 34.93 40.68 32.24 43.41 30.46C45.48 29.11 47.82 28.39 50.17 28.39C53.48 28.39 56.32 29.81 57.97 32.28L68.1 47.45L86.43 35.47C88.5 34.12 90.84 33.4 93.19 33.4C96.5 33.4 99.34 34.82 100.99 37.29C102.25 39.17 102.67 41.52 102.19 43.88C101.59 46.8 99.69 49.49 96.96 51.27L78.65 63.23L88.77 78.39C90.03 80.27 90.45 82.62 89.97 84.98C89.37 87.9 87.47 90.59 84.74 92.37C82.67 93.72 80.33 94.44 77.98 94.44V94.45Z" fill="black"/>
<path d="M50.1801 29.38C53.0201 29.38 55.6401 30.56 57.1501 32.82L67.8301 48.82L86.9801 36.3C88.9501 35.02 91.1301 34.39 93.1901 34.39C96.0301 34.39 98.6501 35.57 100.16 37.83C102.76 41.73 101.09 47.37 96.4201 50.42L77.2701 62.94L87.9501 78.94C90.5501 82.84 88.8801 88.48 84.2101 91.53C82.2501 92.81 80.0601 93.44 78.0001 93.44C75.1601 93.44 72.5401 92.26 71.0301 90L60.3501 74L41.2001 86.52C39.2301 87.8 37.0501 88.43 34.9901 88.43C32.1501 88.43 29.5301 87.25 28.0201 84.99C25.4201 81.09 27.0901 75.45 31.7601 72.4L50.9101 59.88L40.2301 43.88C37.6301 39.98 39.3001 34.34 43.9701 31.29C45.9401 30.01 48.1201 29.38 50.1801 29.38ZM50.1801 27.38C47.6401 27.38 45.1101 28.15 42.8801 29.61C39.9301 31.54 37.8701 34.46 37.2201 37.64C36.6801 40.27 37.1601 42.88 38.5701 44.99L48.1301 59.31L30.6701 70.72C27.7201 72.65 25.6601 75.57 25.0101 78.75C24.4701 81.38 24.9501 83.99 26.3601 86.1C28.2001 88.85 31.3401 90.43 34.9901 90.43C37.5301 90.43 40.0601 89.66 42.2901 88.2L59.7901 76.77L69.3701 91.12C71.2101 93.87 74.3501 95.45 78.0001 95.45C80.5401 95.45 83.0701 94.68 85.3001 93.22C88.2501 91.29 90.3101 88.37 90.9601 85.19C91.5001 82.56 91.0201 79.95 89.6101 77.84L80.0501 63.52L97.5101 52.11C100.46 50.18 102.52 47.26 103.17 44.08C103.71 41.45 103.23 38.84 101.82 36.73C99.9801 33.98 96.8401 32.4 93.1901 32.4C90.6501 32.4 88.1201 33.17 85.8901 34.63L68.3901 46.06L58.8101 31.71C56.9701 28.96 53.8301 27.38 50.1801 27.38Z" fill="black"/>
<path d="M77.3401 93.59C74.0301 93.59 71.1901 92.17 69.5401 89.7L59.4101 74.53L41.0801 86.5C39.0101 87.85 36.6701 88.57 34.3201 88.57C31.0101 88.57 28.1701 87.15 26.5201 84.68C25.2601 82.8 24.8401 80.45 25.3201 78.09C25.9201 75.17 27.8201 72.48 30.5501 70.7L48.8601 58.74L38.7401 43.58C37.4801 41.7 37.0601 39.35 37.5401 36.99C38.1401 34.07 40.0401 31.38 42.7701 29.6C44.8401 28.25 47.1801 27.53 49.5301 27.53C52.8401 27.53 55.6801 28.95 57.3301 31.42L67.4601 46.59L85.7901 34.62C87.8601 33.27 90.2001 32.55 92.5501 32.55C95.8601 32.55 98.7001 33.97 100.35 36.44C101.61 38.32 102.03 40.67 101.55 43.03C100.95 45.95 99.0501 48.64 96.3201 50.42L78.0101 62.38L88.1301 77.54C89.3901 79.42 89.8101 81.77 89.3301 84.13C88.7301 87.05 86.8301 89.74 84.1001 91.52C82.0301 92.87 79.6901 93.59 77.3501 93.59H77.3401Z" fill="black"/>
<path d="M49.5299 28.52C52.3699 28.52 54.9899 29.7 56.4999 31.96L67.1799 47.96L86.3299 35.44C88.2999 34.16 90.4799 33.53 92.5399 33.53C95.3799 33.53 97.9999 34.71 99.5099 36.97C102.11 40.87 100.44 46.51 95.7699 49.56L76.6199 62.08L87.2999 78.08C89.8999 81.98 88.2299 87.62 83.5599 90.67C81.5999 91.95 79.4099 92.58 77.3499 92.58C74.5099 92.58 71.8899 91.4 70.3799 89.14L59.6999 73.14L40.5499 85.66C38.5799 86.94 36.3999 87.57 34.3399 87.57C31.4999 87.57 28.8799 86.39 27.3699 84.13C24.7699 80.23 26.4399 74.59 31.1099 71.54L50.2599 59.02L39.5799 43.02C36.9799 39.12 38.6499 33.48 43.3199 30.43C45.2899 29.15 47.4699 28.52 49.5299 28.52ZM49.5299 26.52C46.9899 26.52 44.4599 27.29 42.2299 28.75C39.2799 30.68 37.2199 33.6 36.5699 36.78C36.0299 39.41 36.5099 42.02 37.9199 44.13L47.4799 58.45L30.0199 69.86C27.0699 71.79 25.0099 74.71 24.3599 77.89C23.8199 80.52 24.2999 83.13 25.7099 85.24C27.5499 87.99 30.6899 89.57 34.3399 89.57C36.8799 89.57 39.4099 88.8 41.6399 87.34L59.1399 75.91L68.7199 90.26C70.5599 93.01 73.6999 94.59 77.3499 94.59C79.8899 94.59 82.4199 93.82 84.6499 92.36C87.5999 90.43 89.6599 87.51 90.3099 84.33C90.8499 81.7 90.3699 79.09 88.9599 76.98L79.3999 62.66L96.8599 51.25C99.8099 49.32 101.87 46.4 102.52 43.22C103.06 40.59 102.58 37.98 101.17 35.87C99.3299 33.12 96.1899 31.54 92.5399 31.54C89.9999 31.54 87.4699 32.31 85.2399 33.77L67.7399 45.2L58.1599 30.85C56.3199 28.1 53.1799 26.52 49.5299 26.52Z" fill="black"/>
<path d="M77.95 63.82L97.1 51.3C101.77 48.25 103.45 42.61 100.84 38.71C98.24 34.81 92.34 34.12 87.66 37.17L68.51 49.69L57.83 33.69C55.23 29.79 49.33 29.1 44.65 32.15C39.98 35.2 38.3 40.84 40.91 44.74L51.59 60.74L32.44 73.26C27.77 76.31 26.09 81.95 28.7 85.85C31.31 89.75 37.2 90.44 41.88 87.39L61.03 74.87L71.71 90.87C74.31 94.77 80.21 95.46 84.89 92.41C89.56 89.36 91.24 83.72 88.63 79.82L77.95 63.82Z" fill="#AAAAAA"/>
<path d="M87.9799 78.96L77.2999 62.96L96.4499 50.44C101.12 47.39 102.8 41.75 100.19 37.85C97.5799 33.95 91.6899 33.26 87.0099 36.31L67.8599 48.83L57.1799 32.83C54.5799 28.93 48.6799 28.24 43.9999 31.29C39.3299 34.34 37.6499 39.98 40.2599 43.88L50.9399 59.88L31.7899 72.4C27.1199 75.45 25.4399 81.09 28.0499 84.99C30.6599 88.89 36.5499 89.58 41.2299 86.53L60.3799 74.01L71.0599 90.01C73.6599 93.91 79.5599 94.6 84.2399 91.55C88.9099 88.5 90.5899 82.86 87.9799 78.96Z" fill="#AAAAAA"/>
<path d="M76.66 62.1L95.81 49.58C100.48 46.53 102.16 40.89 99.55 36.99C96.95 33.09 91.05 32.4 86.37 35.45L67.22 47.97L56.54 31.97C53.94 28.07 48.04 27.38 43.36 30.43C38.69 33.48 37.01 39.12 39.62 43.02L50.3 59.02L31.15 71.54C26.48 74.59 24.8 80.23 27.41 84.13C30.02 88.03 35.91 88.72 40.59 85.67L59.74 73.15L70.42 89.15C73.02 93.05 78.92 93.74 83.6 90.69C88.27 87.64 89.95 82 87.34 78.1L76.66 62.1Z" fill="#AAAAAA"/>
<path d="M76.7501 62.1L95.9001 49.58C100.57 46.53 102.25 40.89 99.6401 36.99C97.0401 33.09 91.1401 32.4 86.4601 35.45L67.3101 47.97L56.6301 31.97C54.0301 28.07 48.1301 27.38 43.4501 30.43C38.7801 33.48 37.1001 39.12 39.7101 43.02L50.3901 59.02L31.2401 71.54C26.5701 74.59 24.8901 80.23 27.5001 84.13C30.1101 88.03 36.0001 88.72 40.6801 85.67L59.8301 73.15L70.5101 89.15C73.1101 93.05 79.0101 93.74 83.6901 90.69C88.3601 87.64 90.0401 82 87.4301 78.1L76.7501 62.1Z" fill="white"/>
</g>
<defs>
<clipPath id="clip0_5577_30417">
<rect width="144.29" height="163.63" fill="white"/>
</clipPath>
</defs>
</svg>
