<svg width="81" height="30" viewBox="0 0 81 30" fill="none" xmlns="http://www.w3.org/2000/svg">
<rect width="81" height="24" rx="4" fill="#FFE6EE"/>
<path d="M15.72 13.816H13.68V9.796H12.12V8.116H13.68V6.88H15.72V13.816ZM6.48 10.912C7.656 10.504 8.76 9.328 8.76 7.924V6.952H10.8V7.924C10.8 8.14 10.776 8.416 10.728 8.668C11.028 9.604 12.108 10.468 13.08 10.792L12.312 12.376C11.448 12.088 10.428 11.368 9.792 10.42C9.192 11.344 8.208 12.124 7.2 12.496L6.48 10.912ZM8.28 15.304V13.096H10.32V15.028C10.32 15.22 10.392 15.352 10.536 15.412C10.896 15.568 11.592 15.616 12.24 15.616C13.428 15.616 14.676 15.424 15.816 15.04L16.128 16.648C14.892 17.092 13.5 17.32 12.12 17.32C11.28 17.32 10.356 17.236 9.576 16.96C8.652 16.636 8.28 16.144 8.28 15.304ZM18.4247 6.928H25.9847V10.456H18.4247V6.928ZM17.2847 12.364V10.924H27.1247V12.364H23.2247V12.88H25.9847V14.944C25.9847 15.544 25.6247 15.904 25.0247 15.904H20.4167V16.048C20.4167 16.216 20.4887 16.288 20.6567 16.324C21.1127 16.408 21.8927 16.432 22.6967 16.432C23.6447 16.432 24.9407 16.348 26.0447 16.12L26.2127 17.416C25.0727 17.656 23.7287 17.776 22.5527 17.776C21.6287 17.776 20.6567 17.716 19.8647 17.548C18.9407 17.356 18.4247 16.888 18.4247 16.144V14.656H23.9927V14.224H18.4247V12.88H21.1847V12.364H17.2847ZM20.3687 9.064H24.0407V8.32H20.3687V9.064ZM32.095 13.66C33.187 14.188 34.315 14.476 35.587 14.572V12.664H32.827V6.928H34.771V8.176H38.443V6.928H40.387V12.664H37.627V14.572C38.899 14.476 40.027 14.188 41.119 13.66L41.695 15.304C40.207 16.012 38.527 16.36 36.607 16.36C34.687 16.36 33.007 16.012 31.519 15.304L32.095 13.66ZM34.771 11.008H38.443V9.784H34.771V11.008ZM51.8997 16.84H50.0037V11.524H49.3797V16.6H47.5317V6.904H49.3797V9.772H50.0037V6.88H51.8997V16.84ZM42.8517 14.176V7.12H44.6997V12.448H47.1717V14.176H42.8517ZM63.1364 13.096H53.2964V11.488H63.1364V13.096ZM54.4364 15.328V13.792H56.4764V15.124C56.4764 15.316 56.5484 15.448 56.6924 15.508C57.0644 15.664 57.7844 15.712 58.4564 15.712C59.6564 15.712 60.9044 15.496 62.0564 15.112L62.3684 16.672C61.1204 17.116 59.7284 17.344 58.3364 17.344C57.4724 17.344 56.5244 17.26 55.7324 16.984C54.8084 16.66 54.4364 16.168 54.4364 15.328ZM54.4364 10.672V6.928H56.4764V9.064H62.0564V10.672H54.4364ZM73.9411 13H70.0411V13.48C71.5171 13.708 72.5611 14.44 72.5611 15.592C72.5611 16.996 71.0131 17.776 69.0211 17.776C67.0291 17.776 65.4811 16.996 65.4811 15.592C65.4811 14.44 66.5251 13.708 68.0011 13.48V13H64.1011V11.44H73.9411V13ZM65.0011 9.544C66.3331 9.424 67.6531 9.004 67.9411 8.416H65.2411V6.928H72.8011V8.416H70.0171C70.0051 8.512 69.9811 8.608 69.9571 8.704C70.5571 9.22 71.8891 9.472 73.0411 9.52L72.8011 11.08C71.6011 11.032 69.9091 10.66 68.8891 9.772C68.0011 10.576 66.5371 10.96 65.2411 11.08L65.0011 9.544ZM67.4251 15.592C67.4251 16.156 68.2291 16.312 69.0211 16.312C69.8131 16.312 70.6171 16.156 70.6171 15.592C70.6171 15.028 69.8131 14.896 69.0211 14.896C68.2291 14.896 67.4251 15.028 67.4251 15.592Z" fill="#FA0050"/>
<path d="M43.8481 30C41.1519 30 37.9864 27.1099 37.1519 24L43.8481 24C43.8481 24 43.1519 25.2811 43.1519 27C43.1519 28.7189 43.8481 30 43.8481 30Z" fill="#FFE6EE"/>
</svg>
