<svg width="59" height="30" viewBox="0 0 59 30" fill="none" xmlns="http://www.w3.org/2000/svg">
<path d="M33 30C30.3037 30 27.1383 27.1099 26.3037 24L33 24C33 24 32.3037 25.2811 32.3037 27C32.3037 28.7189 33 30 33 30Z" fill="#E5E5E5"/>
<rect width="59" height="24" rx="4" fill="#E5E5E5"/>
<path d="M15.72 13.816H13.68V9.796H12.12V8.116H13.68V6.88H15.72V13.816ZM6.48 10.912C7.656 10.504 8.76 9.328 8.76 7.924V6.952H10.8V7.924C10.8 8.14 10.776 8.416 10.728 8.668C11.028 9.604 12.108 10.468 13.08 10.792L12.312 12.376C11.448 12.088 10.428 11.368 9.792 10.42C9.192 11.344 8.208 12.124 7.2 12.496L6.48 10.912ZM8.28 15.304V13.096H10.32V15.028C10.32 15.22 10.392 15.352 10.536 15.412C10.896 15.568 11.592 15.616 12.24 15.616C13.428 15.616 14.676 15.424 15.816 15.04L16.128 16.648C14.892 17.092 13.5 17.32 12.12 17.32C11.28 17.32 10.356 17.236 9.576 16.96C8.652 16.636 8.28 16.144 8.28 15.304ZM18.4247 6.928H25.9847V10.456H18.4247V6.928ZM17.2847 12.364V10.924H27.1247V12.364H23.2247V12.88H25.9847V14.944C25.9847 15.544 25.6247 15.904 25.0247 15.904H20.4167V16.048C20.4167 16.216 20.4887 16.288 20.6567 16.324C21.1127 16.408 21.8927 16.432 22.6967 16.432C23.6447 16.432 24.9407 16.348 26.0447 16.12L26.2127 17.416C25.0727 17.656 23.7287 17.776 22.5527 17.776C21.6287 17.776 20.6567 17.716 19.8647 17.548C18.9407 17.356 18.4247 16.888 18.4247 16.144V14.656H23.9927V14.224H18.4247V12.88H21.1847V12.364H17.2847ZM20.3687 9.064H24.0407V8.32H20.3687V9.064ZM34.147 16.696V13.888H31.687V12.232H38.887V6.88H40.927V16.84H38.887V13.888H36.187V16.696H34.147ZM31.987 10.216C32.887 10.108 33.967 9.58 34.123 8.992H32.407V7.408H34.147V6.664H36.187V7.408H37.927V8.992H36.175C36.163 9.112 36.139 9.232 36.103 9.352C36.499 9.76 37.507 10.132 38.347 10.192L37.867 11.8C37.003 11.704 35.815 11.26 35.083 10.564C34.423 11.224 33.355 11.668 32.467 11.8L31.987 10.216ZM42.8997 13.66C43.9917 14.188 45.1197 14.476 46.3917 14.572V12.328H48.4317V14.572C49.7037 14.476 50.8317 14.188 51.9237 13.66L52.4997 15.304C51.0117 16.012 49.3317 16.36 47.4117 16.36C45.4917 16.36 43.8117 16.012 42.3237 15.304L42.8997 13.66ZM43.2717 11.128C44.8197 10.672 46.3917 9.232 46.3917 7.936V6.88H48.4317V7.936C48.4317 8.128 48.4077 8.428 48.3477 8.668C48.8517 9.712 50.2797 10.732 51.5517 11.128L50.8797 12.76C49.7277 12.424 48.2397 11.44 47.3637 10.324C46.5597 11.464 45.1677 12.4 43.9437 12.76L43.2717 11.128Z" fill="#333333"/>
</svg>
