<svg width="70" height="30" viewBox="0 0 70 30" fill="none" xmlns="http://www.w3.org/2000/svg">
<path d="M39 30C36.3037 30 33.1383 27.1099 32.3037 24L39 24C39 24 38.3037 25.2811 38.3037 27C38.3037 28.7189 39 30 39 30Z" fill="#FFE6EE"/>
<rect width="70" height="24" rx="4" fill="#FFE6EE"/>
<path d="M15.72 13.816H13.68V9.796H12.12V8.116H13.68V6.88H15.72V13.816ZM6.48 10.912C7.656 10.504 8.76 9.328 8.76 7.924V6.952H10.8V7.924C10.8 8.14 10.776 8.416 10.728 8.668C11.028 9.604 12.108 10.468 13.08 10.792L12.312 12.376C11.448 12.088 10.428 11.368 9.792 10.42C9.192 11.344 8.208 12.124 7.2 12.496L6.48 10.912ZM8.28 15.304V13.096H10.32V15.028C10.32 15.22 10.392 15.352 10.536 15.412C10.896 15.568 11.592 15.616 12.24 15.616C13.428 15.616 14.676 15.424 15.816 15.04L16.128 16.648C14.892 17.092 13.5 17.32 12.12 17.32C11.28 17.32 10.356 17.236 9.576 16.96C8.652 16.636 8.28 16.144 8.28 15.304ZM18.4247 6.928H25.9847V10.456H18.4247V6.928ZM17.2847 12.364V10.924H27.1247V12.364H23.2247V12.88H25.9847V14.944C25.9847 15.544 25.6247 15.904 25.0247 15.904H20.4167V16.048C20.4167 16.216 20.4887 16.288 20.6567 16.324C21.1127 16.408 21.8927 16.432 22.6967 16.432C23.6447 16.432 24.9407 16.348 26.0447 16.12L26.2127 17.416C25.0727 17.656 23.7287 17.776 22.5527 17.776C21.6287 17.776 20.6567 17.716 19.8647 17.548C18.9407 17.356 18.4247 16.888 18.4247 16.144V14.656H23.9927V14.224H18.4247V12.88H21.1847V12.364H17.2847ZM20.3687 9.064H24.0407V8.32H20.3687V9.064ZM40.927 16.84H38.887V6.88H40.927V16.84ZM32.167 14.416V7.12H37.687V14.416H32.167ZM34.063 12.76H35.791V8.776H34.063V12.76ZM51.4917 16.84H49.4517V6.88H51.4917V9.868H52.6917V11.668H51.4917V16.84ZM42.3717 13.192C43.5477 12.424 44.6517 10.648 44.6517 9.004V7.072H46.6917V9.004C46.6917 9.232 46.6677 9.508 46.6197 9.784C46.8717 10.972 47.9757 12.424 48.9717 13.072L47.8677 14.536C47.1237 14.032 46.2597 13.096 45.6837 11.98C45.1437 13.084 44.2917 14.056 43.4277 14.656L42.3717 13.192ZM61.0844 13.288C61.4324 13.744 61.6364 14.296 61.6364 14.884C61.6364 16.48 60.1844 17.776 58.2164 17.776C56.2484 17.776 54.7964 16.48 54.7964 14.884C54.7964 14.296 55.0004 13.744 55.3484 13.288H53.2964V11.728H55.0724V10.048C54.8204 9.724 54.6764 9.352 54.6764 8.908C54.6764 7.432 56.2244 6.592 58.2164 6.592C60.2084 6.592 61.7564 7.432 61.7564 8.908C61.7564 9.352 61.6124 9.724 61.3604 10.048V11.728H63.1364V13.288H61.0844ZM56.6204 8.908C56.6204 9.544 57.4244 9.76 58.2164 9.76C59.0084 9.76 59.8124 9.544 59.8124 8.908C59.8124 8.272 59.0084 8.08 58.2164 8.08C57.4244 8.08 56.6204 8.272 56.6204 8.908ZM56.7404 14.764C56.7404 15.688 57.4244 16.312 58.2164 16.312C59.0084 16.312 59.6924 15.688 59.6924 14.764C59.6924 13.84 59.0084 13.216 58.2164 13.216C57.4244 13.216 56.7404 13.84 56.7404 14.764ZM57.0164 11.728H59.4164V11.068C59.0444 11.14 58.6364 11.176 58.2164 11.176C57.7964 11.176 57.3884 11.14 57.0164 11.068V11.728Z" fill="#FA0050"/>
</svg>
