<svg width="82" height="31" viewBox="0 0 82 31" fill="none" xmlns="http://www.w3.org/2000/svg">
<rect x="0.171875" y="0.135742" width="81" height="24" rx="4" fill="#E5E5E5"/>
<path d="M15.8919 14.0477H13.8519V10.6637H12.5319V9.07974H13.8519V7.01574H15.8919V14.0477ZM6.71188 11.1917C7.85188 10.8797 8.93188 9.90774 8.93188 8.71974H7.13188V7.13574H12.7719V8.71974H10.9719C10.9719 8.92374 10.9479 9.18774 10.8999 9.43974C11.1519 10.1837 12.2439 10.9157 13.1919 11.1197L12.5439 12.7277C11.7039 12.5117 10.5999 11.8277 9.95188 10.9277C9.35188 11.7917 8.29588 12.4997 7.31188 12.7997L6.71188 11.1917ZM8.45188 15.4397V13.3277H10.4919V15.1637C10.4919 15.3557 10.5639 15.4877 10.7079 15.5477C11.0679 15.7037 11.7639 15.7517 12.4119 15.7517C13.5999 15.7517 14.8479 15.5597 15.9879 15.1757L16.2999 16.7837C15.0639 17.2277 13.6719 17.4557 12.2919 17.4557C11.4519 17.4557 10.5279 17.3717 9.74788 17.0957C8.82388 16.7717 8.45188 16.2797 8.45188 15.4397ZM26.8646 16.9757H24.9686V7.01574H26.8646V16.9757ZM17.3966 13.5437C18.2606 12.7997 19.0766 11.3117 19.0766 9.81174V9.60774H17.8166V7.97574H19.0766V6.87174H20.9486V7.97574H22.2086V9.60774H20.9486V9.81174C20.9486 10.0517 20.9366 10.3637 20.8886 10.6397C21.0566 11.6597 21.8366 12.8357 22.6286 13.4237L21.5726 14.7437C21.0686 14.3357 20.4326 13.5797 20.0006 12.7037C19.6046 13.5797 19.0166 14.3717 18.4526 14.8637L17.3966 13.5437ZM21.6686 11.8877V10.1357H22.6646V7.03974H24.5126V16.7357H22.6646V11.8877H21.6686ZM41.0989 13.9517H39.0589V9.93174H37.4989V8.25174H39.0589V7.01574H41.0989V13.9517ZM31.8589 11.0477C33.0349 10.6397 34.1389 9.46374 34.1389 8.05974V7.08774H36.1789V8.05974C36.1789 8.27574 36.1549 8.55174 36.1069 8.80374C36.4069 9.73974 37.4869 10.6037 38.4589 10.9277L37.6909 12.5117C36.8269 12.2237 35.8069 11.5037 35.1709 10.5557C34.5709 11.4797 33.5869 12.2597 32.5789 12.6317L31.8589 11.0477ZM33.6589 15.4397V13.2317H35.6989V15.1637C35.6989 15.3557 35.7709 15.4877 35.9149 15.5477C36.2749 15.7037 36.9709 15.7517 37.6189 15.7517C38.8069 15.7517 40.0549 15.5597 41.1949 15.1757L41.5069 16.7837C40.2709 17.2277 38.8789 17.4557 37.4989 17.4557C36.6589 17.4557 35.7349 17.3717 34.9549 17.0957C34.0309 16.7717 33.6589 16.2797 33.6589 15.4397ZM43.8036 7.06374H51.3636V10.5917H43.8036V7.06374ZM42.6636 12.4997V11.0597H52.5036V12.4997H48.6036V13.0157H51.3636V15.0797C51.3636 15.6797 51.0036 16.0397 50.4036 16.0397H45.7956V16.1837C45.7956 16.3517 45.8676 16.4237 46.0356 16.4597C46.4916 16.5437 47.2716 16.5677 48.0756 16.5677C49.0236 16.5677 50.3196 16.4837 51.4236 16.2557L51.5916 17.5517C50.4516 17.7917 49.1076 17.9117 47.9316 17.9117C47.0076 17.9117 46.0356 17.8517 45.2436 17.6837C44.3196 17.4917 43.8036 17.0237 43.8036 16.2797V14.7917H49.3716V14.3597H43.8036V13.0157H46.5636V12.4997H42.6636ZM45.7476 9.19974H49.4196V8.45574H45.7476V9.19974ZM62.7083 12.1277H60.6683V7.01574H62.7083V12.1277ZM53.4683 10.5197C54.6443 10.1837 55.7483 9.15174 55.7483 7.81974V7.06374H57.7883V7.81974C57.7883 8.03574 57.7643 8.29974 57.7163 8.55174C57.9803 9.39174 59.0963 10.1597 60.0683 10.3997L59.3723 11.9597C58.4963 11.7317 57.4403 11.0837 56.7803 10.1717C56.1683 11.0717 55.1483 11.7677 54.1163 12.0797L53.4683 10.5197ZM55.2683 16.0157V14.3837H60.7163V13.9037H55.2683V12.4877H62.7083V14.7437C62.7083 15.3437 62.3483 15.7037 61.7483 15.7037H57.2603V15.8957C57.2603 16.0637 57.3323 16.1237 57.4763 16.1597C57.8603 16.2557 58.5803 16.2797 59.2283 16.2797C60.4043 16.2797 61.6523 16.1957 62.8283 15.9437L62.9963 17.2877C61.8203 17.5637 60.4763 17.6957 59.1083 17.6957C58.2683 17.6957 57.3443 17.6477 56.5643 17.4557C55.6403 17.2277 55.2683 16.7837 55.2683 16.0157ZM73.681 16.9757H71.833V11.7197H71.449V16.7357H69.649V7.03974H71.449V9.96774H71.833V7.01574H73.681V16.9757ZM64.453 14.4317V12.8477H64.945V8.83974H64.513V7.25574H69.289V8.83974H68.857V12.8477H69.409V14.4317H64.453ZM66.625 12.8477H67.177V8.83974H66.625V12.8477Z" fill="#333333"/>
<path d="M44.0195 30.1357C41.3232 30.1357 38.1578 27.2457 37.3232 24.1357L44.0195 24.1357C44.0195 24.1357 43.3232 25.4168 43.3232 27.1357C43.3232 28.8547 44.0195 30.1357 44.0195 30.1357Z" fill="#E5E5E5"/>
</svg>
