<svg width="81" height="30" viewBox="0 0 81 30" fill="none" xmlns="http://www.w3.org/2000/svg">
<path d="M44 30C41.3037 30 38.1383 27.1099 37.3037 24L44 24C44 24 43.3037 25.2811 43.3037 27C43.3037 28.7189 44 30 44 30Z" fill="#E5E5E5"/>
<rect width="81" height="24" rx="4" fill="#E5E5E5"/>
<path d="M15.72 13.816H13.68V9.796H12.12V8.116H13.68V6.88H15.72V13.816ZM6.48 10.912C7.656 10.504 8.76 9.328 8.76 7.924V6.952H10.8V7.924C10.8 8.14 10.776 8.416 10.728 8.668C11.028 9.604 12.108 10.468 13.08 10.792L12.312 12.376C11.448 12.088 10.428 11.368 9.792 10.42C9.192 11.344 8.208 12.124 7.2 12.496L6.48 10.912ZM8.28 15.304V13.096H10.32V15.028C10.32 15.22 10.392 15.352 10.536 15.412C10.896 15.568 11.592 15.616 12.24 15.616C13.428 15.616 14.676 15.424 15.816 15.04L16.128 16.648C14.892 17.092 13.5 17.32 12.12 17.32C11.28 17.32 10.356 17.236 9.576 16.96C8.652 16.636 8.28 16.144 8.28 15.304ZM18.4247 6.928H25.9847V10.456H18.4247V6.928ZM17.2847 12.364V10.924H27.1247V12.364H23.2247V12.88H25.9847V14.944C25.9847 15.544 25.6247 15.904 25.0247 15.904H20.4167V16.048C20.4167 16.216 20.4887 16.288 20.6567 16.324C21.1127 16.408 21.8927 16.432 22.6967 16.432C23.6447 16.432 24.9407 16.348 26.0447 16.12L26.2127 17.416C25.0727 17.656 23.7287 17.776 22.5527 17.776C21.6287 17.776 20.6567 17.716 19.8647 17.548C18.9407 17.356 18.4247 16.888 18.4247 16.144V14.656H23.9927V14.224H18.4247V12.88H21.1847V12.364H17.2847ZM20.3687 9.064H24.0407V8.32H20.3687V9.064ZM40.687 16.84H38.647V6.88H40.687V9.868H41.887V11.668H40.687V16.84ZM31.567 13.192C32.743 12.424 33.847 10.648 33.847 9.004V7.072H35.887V9.004C35.887 9.232 35.863 9.508 35.815 9.784C36.067 10.972 37.171 12.424 38.167 13.072L37.063 14.536C36.319 14.032 35.455 13.096 34.879 11.98C34.339 13.084 33.487 14.056 32.623 14.656L31.567 13.192ZM50.2797 13.288C50.6277 13.744 50.8317 14.296 50.8317 14.884C50.8317 16.48 49.3797 17.776 47.4117 17.776C45.4437 17.776 43.9917 16.48 43.9917 14.884C43.9917 14.296 44.1957 13.744 44.5437 13.288H42.4917V11.728H44.2677V10.048C44.0157 9.724 43.8717 9.352 43.8717 8.908C43.8717 7.432 45.4197 6.592 47.4117 6.592C49.4037 6.592 50.9517 7.432 50.9517 8.908C50.9517 9.352 50.8077 9.724 50.5557 10.048V11.728H52.3317V13.288H50.2797ZM45.8157 8.908C45.8157 9.544 46.6197 9.76 47.4117 9.76C48.2037 9.76 49.0077 9.544 49.0077 8.908C49.0077 8.272 48.2037 8.08 47.4117 8.08C46.6197 8.08 45.8157 8.272 45.8157 8.908ZM45.9357 14.764C45.9357 15.688 46.6197 16.312 47.4117 16.312C48.2037 16.312 48.8877 15.688 48.8877 14.764C48.8877 13.84 48.2037 13.216 47.4117 13.216C46.6197 13.216 45.9357 13.84 45.9357 14.764ZM46.2117 11.728H48.6117V11.068C48.2397 11.14 47.8317 11.176 47.4117 11.176C46.9917 11.176 46.5837 11.14 46.2117 11.068V11.728ZM56.8964 15.172C56.8964 15.364 56.9684 15.496 57.1124 15.556C57.4724 15.712 58.1684 15.76 58.8284 15.76C60.0044 15.76 61.2524 15.544 62.3924 15.16L62.7044 16.672C61.4684 17.116 60.0764 17.344 58.7084 17.344C57.8564 17.344 56.9324 17.26 56.1524 16.984C55.2284 16.66 54.8564 16.168 54.8564 15.328V13.912H56.8964V15.172ZM53.1764 13.312V11.752H55.6484V11.116C54.5564 10.816 53.7764 10.024 53.7764 8.92C53.7764 7.492 55.0724 6.592 56.6564 6.592C58.2404 6.592 59.5364 7.492 59.5364 8.92C59.5364 10.024 58.7564 10.816 57.6644 11.116V11.752H60.2564V6.88H62.2964V9.388H63.4964V11.188H62.2964V14.272H60.2564V13.312H53.1764ZM55.6484 8.92C55.6484 9.484 56.1284 9.808 56.6564 9.808C57.1844 9.808 57.6644 9.484 57.6644 8.92C57.6644 8.356 57.1844 8.056 56.6564 8.056C56.1284 8.056 55.6484 8.356 55.6484 8.92ZM64.5091 13.708C65.0491 13.972 65.6011 14.176 66.1771 14.32V12.928H65.2411V9.184H70.8091V8.584H65.2411V6.976H72.8011V10.696H67.2331V11.32H72.8611V12.928H71.8651V14.32C72.4411 14.176 72.9931 13.972 73.5331 13.708L74.1091 15.304C72.6211 16.012 70.9411 16.36 69.0211 16.36C67.1011 16.36 65.4211 16.012 63.9331 15.304L64.5091 13.708ZM68.1211 14.632C68.4091 14.644 68.7091 14.656 69.0211 14.656C69.3331 14.656 69.6331 14.644 69.9211 14.632V12.928H68.1211V14.632Z" fill="#333333"/>
</svg>
