<svg width="81" height="30" viewBox="0 0 81 30" fill="none" xmlns="http://www.w3.org/2000/svg">
<path d="M44 30C41.3037 30 38.1383 27.1099 37.3037 24L44 24C44 24 43.3037 25.2811 43.3037 27C43.3037 28.7189 44 30 44 30Z" fill="#FFE6EE"/>
<rect x="11" width="70" height="24" rx="4" fill="#FFE6EE"/>
<path d="M26.72 13.816H24.68V9.796H23.12V8.116H24.68V6.88H26.72V13.816ZM17.48 10.912C18.656 10.504 19.76 9.328 19.76 7.924V6.952H21.8V7.924C21.8 8.14 21.776 8.416 21.728 8.668C22.028 9.604 23.108 10.468 24.08 10.792L23.312 12.376C22.448 12.088 21.428 11.368 20.792 10.42C20.192 11.344 19.208 12.124 18.2 12.496L17.48 10.912ZM19.28 15.304V13.096H21.32V15.028C21.32 15.22 21.392 15.352 21.536 15.412C21.896 15.568 22.592 15.616 23.24 15.616C24.428 15.616 25.676 15.424 26.816 15.04L27.128 16.648C25.892 17.092 24.5 17.32 23.12 17.32C22.28 17.32 21.356 17.236 20.576 16.96C19.652 16.636 19.28 16.144 19.28 15.304ZM29.4247 6.928H36.9847V10.456H29.4247V6.928ZM28.2847 12.364V10.924H38.1247V12.364H34.2247V12.88H36.9847V14.944C36.9847 15.544 36.6247 15.904 36.0247 15.904H31.4167V16.048C31.4167 16.216 31.4887 16.288 31.6567 16.324C32.1127 16.408 32.8927 16.432 33.6967 16.432C34.6447 16.432 35.9407 16.348 37.0447 16.12L37.2127 17.416C36.0727 17.656 34.7287 17.776 33.5527 17.776C32.6287 17.776 31.6567 17.716 30.8647 17.548C29.9407 17.356 29.4247 16.888 29.4247 16.144V14.656H34.9927V14.224H29.4247V12.88H32.1847V12.364H28.2847ZM31.3687 9.064H35.0407V8.32H31.3687V9.064ZM44.187 13.984H51.687V17.296H49.647V15.544H44.187V13.984ZM42.567 13.384V11.824H45.039V11.284C44.067 11.008 43.347 10.36 43.347 9.508C43.347 9.232 43.419 8.98 43.563 8.752H42.927V7.288H45.027V6.64H47.067V7.288H49.167V8.752H48.531C48.675 8.98 48.747 9.232 48.747 9.508C48.747 10.36 48.027 11.008 47.055 11.284V11.824H49.647V6.88H51.687V9.004H52.887V10.804H51.687V13.384H42.567ZM45.243 9.328C45.243 9.772 45.615 10.072 46.047 10.072C46.479 10.072 46.851 9.772 46.851 9.328C46.851 8.884 46.479 8.584 46.047 8.584C45.615 8.584 45.243 8.884 45.243 9.328ZM62.7317 13.816H60.6917V6.88H62.7317V13.816ZM53.7317 9.568C53.7317 7.936 55.0517 6.76 56.7317 6.76C58.4117 6.76 59.7317 7.936 59.7317 9.568C59.7317 11.2 58.4117 12.376 56.7317 12.376C55.0517 12.376 53.7317 11.2 53.7317 9.568ZM55.2917 15.304V13.096H57.3317V15.028C57.3317 15.22 57.4037 15.352 57.5477 15.412C57.9077 15.568 58.6037 15.616 59.2517 15.616C60.4397 15.616 61.6877 15.424 62.8277 15.04L63.1397 16.648C61.9037 17.092 60.5117 17.32 59.1317 17.32C58.2917 17.32 57.3677 17.236 56.5877 16.96C55.6637 16.636 55.2917 16.144 55.2917 15.304ZM55.6037 9.568C55.6037 10.312 56.1317 10.792 56.7317 10.792C57.3317 10.792 57.8597 10.312 57.8597 9.568C57.8597 8.824 57.3317 8.344 56.7317 8.344C56.1317 8.344 55.6037 8.824 55.6037 9.568ZM74.1364 13H70.2364V13.48C71.7124 13.708 72.7564 14.44 72.7564 15.592C72.7564 16.996 71.2084 17.776 69.2164 17.776C67.2244 17.776 65.6764 16.996 65.6764 15.592C65.6764 14.44 66.7204 13.708 68.1964 13.48V13H64.2964V11.44H74.1364V13ZM65.1964 9.544C66.5284 9.424 67.8484 9.004 68.1364 8.416H65.4364V6.928H72.9964V8.416H70.2124C70.2004 8.512 70.1764 8.608 70.1524 8.704C70.7524 9.22 72.0844 9.472 73.2364 9.52L72.9964 11.08C71.7964 11.032 70.1044 10.66 69.0844 9.772C68.1964 10.576 66.7324 10.96 65.4364 11.08L65.1964 9.544ZM67.6204 15.592C67.6204 16.156 68.4244 16.312 69.2164 16.312C70.0084 16.312 70.8124 16.156 70.8124 15.592C70.8124 15.028 70.0084 14.896 69.2164 14.896C68.4244 14.896 67.6204 15.028 67.6204 15.592Z" fill="#FA0050"/>
</svg>
