<svg width="81" height="30" viewBox="0 0 81 30" fill="none" xmlns="http://www.w3.org/2000/svg">
<rect width="81" height="24" rx="4" fill="#FFE6EE"/>
<path d="M15.72 13.912H13.68V10.528H12.36V8.944H13.68V6.88H15.72V13.912ZM6.54 11.056C7.68 10.744 8.76 9.772 8.76 8.584H6.96V7H12.6V8.584H10.8C10.8 8.788 10.776 9.052 10.728 9.304C10.98 10.048 12.072 10.78 13.02 10.984L12.372 12.592C11.532 12.376 10.428 11.692 9.78 10.792C9.18 11.656 8.124 12.364 7.14 12.664L6.54 11.056ZM8.28 15.304V13.192H10.32V15.028C10.32 15.22 10.392 15.352 10.536 15.412C10.896 15.568 11.592 15.616 12.24 15.616C13.428 15.616 14.676 15.424 15.816 15.04L16.128 16.648C14.892 17.092 13.5 17.32 12.12 17.32C11.28 17.32 10.356 17.236 9.576 16.96C8.652 16.636 8.28 16.144 8.28 15.304ZM26.6927 16.84H24.7967V6.88H26.6927V16.84ZM17.2247 13.408C18.0887 12.664 18.9047 11.176 18.9047 9.676V9.472H17.6447V7.84H18.9047V6.736H20.7767V7.84H22.0367V9.472H20.7767V9.676C20.7767 9.916 20.7647 10.228 20.7167 10.504C20.8847 11.524 21.6647 12.7 22.4567 13.288L21.4007 14.608C20.8967 14.2 20.2607 13.444 19.8287 12.568C19.4327 13.444 18.8447 14.236 18.2807 14.728L17.2247 13.408ZM21.4967 11.752V10H22.4927V6.904H24.3407V16.6H22.4927V11.752H21.4967ZM33.187 13.984H40.687V17.296H38.647V15.544H33.187V13.984ZM31.567 13.384V11.824H34.039V11.284C33.067 11.008 32.347 10.36 32.347 9.508C32.347 9.232 32.419 8.98 32.563 8.752H31.927V7.288H34.027V6.64H36.067V7.288H38.167V8.752H37.531C37.675 8.98 37.747 9.232 37.747 9.508C37.747 10.36 37.027 11.008 36.055 11.284V11.824H38.647V6.88H40.687V9.004H41.887V10.804H40.687V13.384H31.567ZM34.243 9.328C34.243 9.772 34.615 10.072 35.047 10.072C35.479 10.072 35.851 9.772 35.851 9.328C35.851 8.884 35.479 8.584 35.047 8.584C34.615 8.584 34.243 8.884 34.243 9.328ZM51.7317 13.816H49.6917V6.88H51.7317V13.816ZM42.7317 9.568C42.7317 7.936 44.0517 6.76 45.7317 6.76C47.4117 6.76 48.7317 7.936 48.7317 9.568C48.7317 11.2 47.4117 12.376 45.7317 12.376C44.0517 12.376 42.7317 11.2 42.7317 9.568ZM44.2917 15.304V13.096H46.3317V15.028C46.3317 15.22 46.4037 15.352 46.5477 15.412C46.9077 15.568 47.6037 15.616 48.2517 15.616C49.4397 15.616 50.6877 15.424 51.8277 15.04L52.1397 16.648C50.9037 17.092 49.5117 17.32 48.1317 17.32C47.2917 17.32 46.3677 17.236 45.5877 16.96C44.6637 16.636 44.2917 16.144 44.2917 15.304ZM44.6037 9.568C44.6037 10.312 45.1317 10.792 45.7317 10.792C46.3317 10.792 46.8597 10.312 46.8597 9.568C46.8597 8.824 46.3317 8.344 45.7317 8.344C45.1317 8.344 44.6037 8.824 44.6037 9.568ZM56.8964 15.172C56.8964 15.364 56.9684 15.496 57.1124 15.556C57.4724 15.712 58.1684 15.76 58.8284 15.76C60.0044 15.76 61.2524 15.544 62.3924 15.16L62.7044 16.672C61.4684 17.116 60.0764 17.344 58.7084 17.344C57.8564 17.344 56.9324 17.26 56.1524 16.984C55.2284 16.66 54.8564 16.168 54.8564 15.328V13.912H56.8964V15.172ZM53.1764 13.312V11.752H55.6484V11.116C54.5564 10.816 53.7764 10.024 53.7764 8.92C53.7764 7.492 55.0724 6.592 56.6564 6.592C58.2404 6.592 59.5364 7.492 59.5364 8.92C59.5364 10.024 58.7564 10.816 57.6644 11.116V11.752H60.2564V6.88H62.2964V9.388H63.4964V11.188H62.2964V14.272H60.2564V13.312H53.1764ZM55.6484 8.92C55.6484 9.484 56.1284 9.808 56.6564 9.808C57.1844 9.808 57.6644 9.484 57.6644 8.92C57.6644 8.356 57.1844 8.056 56.6564 8.056C56.1284 8.056 55.6484 8.356 55.6484 8.92ZM64.5091 13.708C65.0491 13.972 65.6011 14.176 66.1771 14.32V12.928H65.2411V9.184H70.8091V8.584H65.2411V6.976H72.8011V10.696H67.2331V11.32H72.8611V12.928H71.8651V14.32C72.4411 14.176 72.9931 13.972 73.5331 13.708L74.1091 15.304C72.6211 16.012 70.9411 16.36 69.0211 16.36C67.1011 16.36 65.4211 16.012 63.9331 15.304L64.5091 13.708ZM68.1211 14.632C68.4091 14.644 68.7091 14.656 69.0211 14.656C69.3331 14.656 69.6331 14.644 69.9211 14.632V12.928H68.1211V14.632Z" fill="#FA0050"/>
<path d="M43.8481 30C41.1519 30 37.9864 27.1099 37.1519 24L43.8481 24C43.8481 24 43.1519 25.2811 43.1519 27C43.1519 28.7189 43.8481 30 43.8481 30Z" fill="#FFE6EE"/>
</svg>
