<svg width="81" height="30" viewBox="0 0 81 30" fill="none" xmlns="http://www.w3.org/2000/svg">
<path d="M44 30C41.3037 30 38.1383 27.1099 37.3037 24L44 24C44 24 43.3037 25.2811 43.3037 27C43.3037 28.7189 44 30 44 30Z" fill="#FFE6EE"/>
<rect width="81" height="24" rx="4" fill="#FFE6EE"/>
<path d="M15.72 13.816H13.68V9.796H12.12V8.116H13.68V6.88H15.72V13.816ZM6.48 10.912C7.656 10.504 8.76 9.328 8.76 7.924V6.952H10.8V7.924C10.8 8.14 10.776 8.416 10.728 8.668C11.028 9.604 12.108 10.468 13.08 10.792L12.312 12.376C11.448 12.088 10.428 11.368 9.792 10.42C9.192 11.344 8.208 12.124 7.2 12.496L6.48 10.912ZM8.28 15.304V13.096H10.32V15.028C10.32 15.22 10.392 15.352 10.536 15.412C10.896 15.568 11.592 15.616 12.24 15.616C13.428 15.616 14.676 15.424 15.816 15.04L16.128 16.648C14.892 17.092 13.5 17.32 12.12 17.32C11.28 17.32 10.356 17.236 9.576 16.96C8.652 16.636 8.28 16.144 8.28 15.304ZM18.4247 6.928H25.9847V10.456H18.4247V6.928ZM17.2847 12.364V10.924H27.1247V12.364H23.2247V12.88H25.9847V14.944C25.9847 15.544 25.6247 15.904 25.0247 15.904H20.4167V16.048C20.4167 16.216 20.4887 16.288 20.6567 16.324C21.1127 16.408 21.8927 16.432 22.6967 16.432C23.6447 16.432 24.9407 16.348 26.0447 16.12L26.2127 17.416C25.0727 17.656 23.7287 17.776 22.5527 17.776C21.6287 17.776 20.6567 17.716 19.8647 17.548C18.9407 17.356 18.4247 16.888 18.4247 16.144V14.656H23.9927V14.224H18.4247V12.88H21.1847V12.364H17.2847ZM20.3687 9.064H24.0407V8.32H20.3687V9.064ZM33.187 13.984H40.687V17.296H38.647V15.544H33.187V13.984ZM31.567 13.384V11.824H34.039V11.284C33.067 11.008 32.347 10.36 32.347 9.508C32.347 9.232 32.419 8.98 32.563 8.752H31.927V7.288H34.027V6.64H36.067V7.288H38.167V8.752H37.531C37.675 8.98 37.747 9.232 37.747 9.508C37.747 10.36 37.027 11.008 36.055 11.284V11.824H38.647V6.88H40.687V9.004H41.887V10.804H40.687V13.384H31.567ZM34.243 9.328C34.243 9.772 34.615 10.072 35.047 10.072C35.479 10.072 35.851 9.772 35.851 9.328C35.851 8.884 35.479 8.584 35.047 8.584C34.615 8.584 34.243 8.884 34.243 9.328ZM51.7317 13.816H49.6917V6.88H51.7317V13.816ZM42.7317 9.568C42.7317 7.936 44.0517 6.76 45.7317 6.76C47.4117 6.76 48.7317 7.936 48.7317 9.568C48.7317 11.2 47.4117 12.376 45.7317 12.376C44.0517 12.376 42.7317 11.2 42.7317 9.568ZM44.2917 15.304V13.096H46.3317V15.028C46.3317 15.22 46.4037 15.352 46.5477 15.412C46.9077 15.568 47.6037 15.616 48.2517 15.616C49.4397 15.616 50.6877 15.424 51.8277 15.04L52.1397 16.648C50.9037 17.092 49.5117 17.32 48.1317 17.32C47.2917 17.32 46.3677 17.236 45.5877 16.96C44.6637 16.636 44.2917 16.144 44.2917 15.304ZM44.6037 9.568C44.6037 10.312 45.1317 10.792 45.7317 10.792C46.3317 10.792 46.8597 10.312 46.8597 9.568C46.8597 8.824 46.3317 8.344 45.7317 8.344C45.1317 8.344 44.6037 8.824 44.6037 9.568ZM56.8964 15.172C56.8964 15.364 56.9684 15.496 57.1124 15.556C57.4724 15.712 58.1684 15.76 58.8284 15.76C60.0044 15.76 61.2524 15.544 62.3924 15.16L62.7044 16.672C61.4684 17.116 60.0764 17.344 58.7084 17.344C57.8564 17.344 56.9324 17.26 56.1524 16.984C55.2284 16.66 54.8564 16.168 54.8564 15.328V13.912H56.8964V15.172ZM53.1764 13.312V11.752H55.6484V11.116C54.5564 10.816 53.7764 10.024 53.7764 8.92C53.7764 7.492 55.0724 6.592 56.6564 6.592C58.2404 6.592 59.5364 7.492 59.5364 8.92C59.5364 10.024 58.7564 10.816 57.6644 11.116V11.752H60.2564V6.88H62.2964V9.388H63.4964V11.188H62.2964V14.272H60.2564V13.312H53.1764ZM55.6484 8.92C55.6484 9.484 56.1284 9.808 56.6564 9.808C57.1844 9.808 57.6644 9.484 57.6644 8.92C57.6644 8.356 57.1844 8.056 56.6564 8.056C56.1284 8.056 55.6484 8.356 55.6484 8.92ZM64.5091 13.708C65.0491 13.972 65.6011 14.176 66.1771 14.32V12.928H65.2411V9.184H70.8091V8.584H65.2411V6.976H72.8011V10.696H67.2331V11.32H72.8611V12.928H71.8651V14.32C72.4411 14.176 72.9931 13.972 73.5331 13.708L74.1091 15.304C72.6211 16.012 70.9411 16.36 69.0211 16.36C67.1011 16.36 65.4211 16.012 63.9331 15.304L64.5091 13.708ZM68.1211 14.632C68.4091 14.644 68.7091 14.656 69.0211 14.656C69.3331 14.656 69.6331 14.644 69.9211 14.632V12.928H68.1211V14.632Z" fill="#FA0050"/>
</svg>
