<svg width="81" height="31" viewBox="0 0 81 31" fill="none" xmlns="http://www.w3.org/2000/svg">
<rect y="0.0561523" width="81" height="24" rx="4" fill="#FFE6EE"/>
<path d="M15.72 12.0482H13.68V6.93615H15.72V12.0482ZM6.72 9.33615C6.72 7.83615 8.04 6.79215 9.72 6.79215C11.4 6.79215 12.72 7.83615 12.72 9.33615C12.72 10.8362 11.4 11.8802 9.72 11.8802C8.04 11.8802 6.72 10.8362 6.72 9.33615ZM8.28 15.9362V14.3042H13.728V13.8242H8.28V12.4082H15.72V14.6642C15.72 15.2642 15.36 15.6242 14.76 15.6242H10.272V15.8162C10.272 15.9842 10.344 16.0442 10.488 16.0802C10.872 16.1762 11.592 16.2002 12.24 16.2002C13.416 16.2002 14.664 16.1162 15.84 15.8642L16.008 17.2082C14.832 17.4842 13.488 17.6162 12.12 17.6162C11.28 17.6162 10.356 17.5682 9.576 17.3762C8.652 17.1482 8.28 16.7042 8.28 15.9362ZM8.592 9.33615C8.592 9.97215 9.12 10.3922 9.72 10.3922C10.32 10.3922 10.848 9.97215 10.848 9.33615C10.848 8.70015 10.32 8.28015 9.72 8.28015C9.12 8.28015 8.592 8.70015 8.592 9.33615ZM21.1847 16.8962V14.1362H17.2847V12.4802H27.1247V14.1362H23.2247V16.8962H21.1847ZM18.4247 11.5922V6.93615H20.3687V7.71615H24.0407V6.93615H25.9847V11.5922H18.4247ZM20.3687 10.0322H24.0407V9.22815H20.3687V10.0322ZM33.187 14.0402H40.687V17.3522H38.647V15.6002H33.187V14.0402ZM31.567 13.4402V11.8802H34.039V11.3402C33.067 11.0642 32.347 10.4162 32.347 9.56415C32.347 9.28815 32.419 9.03615 32.563 8.80815H31.927V7.34415H34.027V6.69615H36.067V7.34415H38.167V8.80815H37.531C37.675 9.03615 37.747 9.28815 37.747 9.56415C37.747 10.4162 37.027 11.0642 36.055 11.3402V11.8802H38.647V6.93615H40.687V9.06015H41.887V10.8602H40.687V13.4402H31.567ZM34.243 9.38415C34.243 9.82815 34.615 10.1282 35.047 10.1282C35.479 10.1282 35.851 9.82815 35.851 9.38415C35.851 8.94015 35.479 8.64015 35.047 8.64015C34.615 8.64015 34.243 8.94015 34.243 9.38415ZM51.7317 13.8722H49.6917V6.93615H51.7317V13.8722ZM42.7317 9.62415C42.7317 7.99215 44.0517 6.81615 45.7317 6.81615C47.4117 6.81615 48.7317 7.99215 48.7317 9.62415C48.7317 11.2562 47.4117 12.4322 45.7317 12.4322C44.0517 12.4322 42.7317 11.2562 42.7317 9.62415ZM44.2917 15.3602V13.1522H46.3317V15.0842C46.3317 15.2762 46.4037 15.4082 46.5477 15.4682C46.9077 15.6242 47.6037 15.6722 48.2517 15.6722C49.4397 15.6722 50.6877 15.4802 51.8277 15.0962L52.1397 16.7042C50.9037 17.1482 49.5117 17.3762 48.1317 17.3762C47.2917 17.3762 46.3677 17.2922 45.5877 17.0162C44.6637 16.6922 44.2917 16.2002 44.2917 15.3602ZM44.6037 9.62415C44.6037 10.3682 45.1317 10.8482 45.7317 10.8482C46.3317 10.8482 46.8597 10.3682 46.8597 9.62415C46.8597 8.88015 46.3317 8.40015 45.7317 8.40015C45.1317 8.40015 44.6037 8.88015 44.6037 9.62415ZM56.8964 15.2282C56.8964 15.4202 56.9684 15.5522 57.1124 15.6122C57.4724 15.7682 58.1684 15.8162 58.8284 15.8162C60.0044 15.8162 61.2524 15.6002 62.3924 15.2162L62.7044 16.7282C61.4684 17.1722 60.0764 17.4002 58.7084 17.4002C57.8564 17.4002 56.9324 17.3162 56.1524 17.0402C55.2284 16.7162 54.8564 16.2242 54.8564 15.3842V13.9682H56.8964V15.2282ZM53.1764 13.3682V11.8082H55.6484V11.1722C54.5564 10.8722 53.7764 10.0802 53.7764 8.97615C53.7764 7.54815 55.0724 6.64815 56.6564 6.64815C58.2404 6.64815 59.5364 7.54815 59.5364 8.97615C59.5364 10.0802 58.7564 10.8722 57.6644 11.1722V11.8082H60.2564V6.93615H62.2964V9.44415H63.4964V11.2442H62.2964V14.3282H60.2564V13.3682H53.1764ZM55.6484 8.97615C55.6484 9.54015 56.1284 9.86415 56.6564 9.86415C57.1844 9.86415 57.6644 9.54015 57.6644 8.97615C57.6644 8.41215 57.1844 8.11215 56.6564 8.11215C56.1284 8.11215 55.6484 8.41215 55.6484 8.97615ZM64.5091 13.7642C65.0491 14.0282 65.6011 14.2322 66.1771 14.3762V12.9842H65.2411V9.24015H70.8091V8.64015H65.2411V7.03215H72.8011V10.7522H67.2331V11.3762H72.8611V12.9842H71.8651V14.3762C72.4411 14.2322 72.9931 14.0282 73.5331 13.7642L74.1091 15.3602C72.6211 16.0682 70.9411 16.4162 69.0211 16.4162C67.1011 16.4162 65.4211 16.0682 63.9331 15.3602L64.5091 13.7642ZM68.1211 14.6882C68.4091 14.7002 68.7091 14.7122 69.0211 14.7122C69.3331 14.7122 69.6331 14.7002 69.9211 14.6882V12.9842H68.1211V14.6882Z" fill="#FA0050"/>
<path d="M43.8481 30.0562C41.1519 30.0562 37.9864 27.1661 37.1519 24.0562L43.8481 24.0562C43.8481 24.0562 43.1519 25.3372 43.1519 27.0562C43.1519 28.7751 43.8481 30.0562 43.8481 30.0562Z" fill="#FFE6EE"/>
</svg>
