<svg width="81" height="30" viewBox="0 0 81 30" fill="none" xmlns="http://www.w3.org/2000/svg">
<rect width="81" height="24" rx="4" fill="#E5E5E5"/>
<path d="M15.72 13.912H13.68V10.528H12.36V8.944H13.68V6.88H15.72V13.912ZM6.54 11.056C7.68 10.744 8.76 9.772 8.76 8.584H6.96V7H12.6V8.584H10.8C10.8 8.788 10.776 9.052 10.728 9.304C10.98 10.048 12.072 10.78 13.02 10.984L12.372 12.592C11.532 12.376 10.428 11.692 9.78 10.792C9.18 11.656 8.124 12.364 7.14 12.664L6.54 11.056ZM8.28 15.304V13.192H10.32V15.028C10.32 15.22 10.392 15.352 10.536 15.412C10.896 15.568 11.592 15.616 12.24 15.616C13.428 15.616 14.676 15.424 15.816 15.04L16.128 16.648C14.892 17.092 13.5 17.32 12.12 17.32C11.28 17.32 10.356 17.236 9.576 16.96C8.652 16.636 8.28 16.144 8.28 15.304ZM26.6927 16.84H24.7967V6.88H26.6927V16.84ZM17.2247 13.408C18.0887 12.664 18.9047 11.176 18.9047 9.676V9.472H17.6447V7.84H18.9047V6.736H20.7767V7.84H22.0367V9.472H20.7767V9.676C20.7767 9.916 20.7647 10.228 20.7167 10.504C20.8847 11.524 21.6647 12.7 22.4567 13.288L21.4007 14.608C20.8967 14.2 20.2607 13.444 19.8287 12.568C19.4327 13.444 18.8447 14.236 18.2807 14.728L17.2247 13.408ZM21.4967 11.752V10H22.4927V6.904H24.3407V16.6H22.4927V11.752H21.4967ZM40.927 13.816H38.887V9.796H37.327V8.116H38.887V6.88H40.927V13.816ZM31.687 10.912C32.863 10.504 33.967 9.328 33.967 7.924V6.952H36.007V7.924C36.007 8.14 35.983 8.416 35.935 8.668C36.235 9.604 37.315 10.468 38.287 10.792L37.519 12.376C36.655 12.088 35.635 11.368 34.999 10.42C34.399 11.344 33.415 12.124 32.407 12.496L31.687 10.912ZM33.487 15.304V13.096H35.527V15.028C35.527 15.22 35.599 15.352 35.743 15.412C36.103 15.568 36.799 15.616 37.447 15.616C38.635 15.616 39.883 15.424 41.023 15.04L41.335 16.648C40.099 17.092 38.707 17.32 37.327 17.32C36.487 17.32 35.563 17.236 34.783 16.96C33.859 16.636 33.487 16.144 33.487 15.304ZM43.6317 6.928H51.1917V10.456H43.6317V6.928ZM42.4917 12.364V10.924H52.3317V12.364H48.4317V12.88H51.1917V14.944C51.1917 15.544 50.8317 15.904 50.2317 15.904H45.6237V16.048C45.6237 16.216 45.6957 16.288 45.8637 16.324C46.3197 16.408 47.0997 16.432 47.9037 16.432C48.8517 16.432 50.1477 16.348 51.2517 16.12L51.4197 17.416C50.2797 17.656 48.9357 17.776 47.7597 17.776C46.8357 17.776 45.8637 17.716 45.0717 17.548C44.1477 17.356 43.6317 16.888 43.6317 16.144V14.656H49.1997V14.224H43.6317V12.88H46.3917V12.364H42.4917ZM45.5757 9.064H49.2477V8.32H45.5757V9.064ZM55.7564 16.696V13.888H53.2964V12.232H60.4964V6.88H62.5364V16.84H60.4964V13.888H57.7964V16.696H55.7564ZM53.5964 10.216C54.4964 10.108 55.5764 9.58 55.7324 8.992H54.0164V7.408H55.7564V6.664H57.7964V7.408H59.5364V8.992H57.7844C57.7724 9.112 57.7484 9.232 57.7124 9.352C58.1084 9.76 59.1164 10.132 59.9564 10.192L59.4764 11.8C58.6124 11.704 57.4244 11.26 56.6924 10.564C56.0324 11.224 54.9644 11.668 54.0764 11.8L53.5964 10.216ZM64.5091 13.66C65.6011 14.188 66.7291 14.476 68.0011 14.572V12.328H70.0411V14.572C71.3131 14.476 72.4411 14.188 73.5331 13.66L74.1091 15.304C72.6211 16.012 70.9411 16.36 69.0211 16.36C67.1011 16.36 65.4211 16.012 63.9331 15.304L64.5091 13.66ZM64.8811 11.128C66.4291 10.672 68.0011 9.232 68.0011 7.936V6.88H70.0411V7.936C70.0411 8.128 70.0171 8.428 69.9571 8.668C70.4611 9.712 71.8891 10.732 73.1611 11.128L72.4891 12.76C71.3371 12.424 69.8491 11.44 68.9731 10.324C68.1691 11.464 66.7771 12.4 65.5531 12.76L64.8811 11.128Z" fill="#333333"/>
<path d="M43.8481 30C41.1519 30 37.9864 27.1099 37.1519 24L43.8481 24C43.8481 24 43.1519 25.2811 43.1519 27C43.1519 28.7189 43.8481 30 43.8481 30Z" fill="#E5E5E5"/>
</svg>
