<svg width="60" height="30" viewBox="0 0 60 30" fill="none" xmlns="http://www.w3.org/2000/svg">
<rect x="0.882812" width="59" height="24" rx="4" fill="#E5E5E5"/>
<path d="M16.6028 13.816H14.5628V9.796H13.0028V8.116H14.5628V6.88H16.6028V13.816ZM7.36281 10.912C8.53881 10.504 9.64281 9.328 9.64281 7.924V6.952H11.6828V7.924C11.6828 8.14 11.6588 8.416 11.6108 8.668C11.9108 9.604 12.9908 10.468 13.9628 10.792L13.1948 12.376C12.3308 12.088 11.3108 11.368 10.6748 10.42C10.0748 11.344 9.09081 12.124 8.08281 12.496L7.36281 10.912ZM9.16281 15.304V13.096H11.2028V15.028C11.2028 15.22 11.2748 15.352 11.4188 15.412C11.7788 15.568 12.4748 15.616 13.1228 15.616C14.3108 15.616 15.5588 15.424 16.6988 15.04L17.0108 16.648C15.7748 17.092 14.3828 17.32 13.0028 17.32C12.1628 17.32 11.2388 17.236 10.4588 16.96C9.53481 16.636 9.16281 16.144 9.16281 15.304ZM19.3075 6.928H26.8675V10.456H19.3075V6.928ZM18.1675 12.364V10.924H28.0075V12.364H24.1075V12.88H26.8675V14.944C26.8675 15.544 26.5075 15.904 25.9075 15.904H21.2995V16.048C21.2995 16.216 21.3715 16.288 21.5395 16.324C21.9955 16.408 22.7755 16.432 23.5795 16.432C24.5275 16.432 25.8235 16.348 26.9275 16.12L27.0955 17.416C25.9555 17.656 24.6115 17.776 23.4355 17.776C22.5115 17.776 21.5395 17.716 20.7475 17.548C19.8235 17.356 19.3075 16.888 19.3075 16.144V14.656H24.8755V14.224H19.3075V12.88H22.0675V12.364H18.1675ZM21.2515 9.064H24.9235V8.32H21.2515V9.064ZM36.1698 15.172C36.1698 15.364 36.2418 15.496 36.3858 15.556C36.7458 15.712 37.4418 15.76 38.1018 15.76C39.2778 15.76 40.5258 15.544 41.6658 15.16L41.9778 16.672C40.7418 17.116 39.3498 17.344 37.9818 17.344C37.1298 17.344 36.2058 17.26 35.4258 16.984C34.5018 16.66 34.1298 16.168 34.1298 15.328V14.104H36.1698V15.172ZM32.4498 13.552V11.992H34.9218V11.428C33.9498 11.152 33.2298 10.48 33.2298 9.604C33.2298 9.292 33.3258 9.016 33.4818 8.776H32.8098V7.312H34.9098V6.64H36.9498V7.312H39.0498V8.776H38.3778C38.5338 9.016 38.6298 9.292 38.6298 9.604C38.6298 10.48 37.9098 11.152 36.9378 11.428V11.992H39.5298V6.88H41.5698V9.484H42.7698V11.284H41.5698V14.416H39.5298V13.552H32.4498ZM35.1258 9.424C35.1258 9.892 35.4978 10.216 35.9298 10.216C36.3618 10.216 36.7338 9.892 36.7338 9.424C36.7338 8.956 36.3618 8.632 35.9298 8.632C35.4978 8.632 35.1258 8.956 35.1258 9.424ZM53.2145 12.448H49.3145V12.952H52.0745V14.98C52.0745 15.58 51.7145 15.94 51.1145 15.94H46.5065V16.048C46.5065 16.216 46.5785 16.288 46.7465 16.324C47.2025 16.408 47.9825 16.432 48.7865 16.432C49.7345 16.432 51.0305 16.348 52.1345 16.12L52.3025 17.416C51.1625 17.656 49.8185 17.776 48.6425 17.776C47.7185 17.776 46.7465 17.716 45.9545 17.548C45.0305 17.356 44.5145 16.888 44.5145 16.144V14.692H50.0825V14.296H44.5145V12.952H47.2745V12.448H43.3745V11.008H53.2145V12.448ZM44.5145 10.552V6.88H46.4585V7.36H50.1305V6.88H52.0745V10.552H44.5145ZM46.4585 9.16H50.1305V8.704H46.4585V9.16Z" fill="#333333"/>
<path d="M33.7305 30C31.0342 30 27.8687 27.1099 27.0342 24L33.7305 24C33.7305 24 33.0342 25.2811 33.0342 27C33.0342 28.7189 33.7305 30 33.7305 30Z" fill="#E5E5E5"/>
</svg>
