<svg width="15" height="15" viewBox="0 0 15 15" fill="none" xmlns="http://www.w3.org/2000/svg">
<g id="ic_gift">
<mask id="mask0_4282_1649" style="mask-type:alpha" maskUnits="userSpaceOnUse" x="0" y="0" width="15" height="15">
<path id="ic_gift_2" fill-rule="evenodd" clip-rule="evenodd" d="M5.31725 0.720132L7.5 2.93244L9.68275 0.720132C10.6885 -0.299235 12.375 0.444063 12.375 1.83815V3.2503C13.6176 3.2503 14.625 4.25766 14.625 5.5003V7.02004C14.625 7.40759 14.3311 7.72648 13.9539 7.76593V11.8753C13.9539 13.1179 12.9466 14.1253 11.7039 14.1253H3.29605C2.05341 14.1253 1.04605 13.1179 1.04605 11.8753V7.76593C0.668947 7.72648 0.375 7.40759 0.375 7.02004V5.5003C0.375 4.25766 1.38236 3.2503 2.625 3.2503V1.83815C2.625 0.444063 4.3115 -0.299235 5.31725 0.720132ZM4.125 1.83815C4.125 1.80604 4.1331 1.79226 4.13776 1.78555C4.14466 1.77563 4.15699 1.76455 4.17461 1.75716C4.19222 1.74976 4.20668 1.74964 4.2145 1.75101C4.21833 1.75168 4.22979 1.75368 4.24948 1.77364L5.70642 3.2503H4.125V1.83815ZM5.59539 4.7503L2.625 4.7503C2.21079 4.7503 1.875 5.08609 1.875 5.5003V6.16409C1.95193 6.12459 2.03915 6.10229 2.13158 6.10229H5.59539V4.7503ZM2.54605 7.22729V11.8753C2.54605 12.2895 2.88184 12.6253 3.29605 12.6253H5.59539V7.22729H2.54605ZM6.72039 12.6253H8.27961V7.22729H6.72039V12.6253ZM9.40461 12.6253H11.7039C12.1182 12.6253 12.4539 12.2895 12.4539 11.8753V7.22729H9.40461V12.6253ZM13.125 6.10229V5.5003C13.125 5.08609 12.7892 4.7503 12.375 4.7503L9.40461 4.7503V6.10229H13.125ZM8.27961 4.7503H6.72039V6.10229H8.27961V4.7503ZM10.7505 1.77364L9.29358 3.2503H10.875V1.83815C10.875 1.80604 10.8669 1.79226 10.8622 1.78555C10.8553 1.77563 10.843 1.76455 10.8254 1.75716C10.8078 1.74976 10.7933 1.74964 10.7855 1.75101C10.7817 1.75168 10.7702 1.75368 10.7505 1.77364Z" fill="#333333"/>
</mask>
<g mask="url(#mask0_4282_1649)">
<rect id="&#240;&#159;&#142;&#168; tint" x="-1.5" y="-1.99976" width="18" height="18" fill="#333333"/>
</g>
</g>
</svg>
