<svg width="12" height="12" viewBox="0 0 12 12" fill="none" xmlns="http://www.w3.org/2000/svg">
<g id="ic_refresh">
<mask id="mask0_4509_1409" style="mask-type:alpha" maskUnits="userSpaceOnUse" x="0" y="0" width="12" height="12">
<path id="ic_refresh_2" d="M11.6663 0.666667C11.6663 0.298477 11.3679 0 10.9997 0C10.6315 0 10.333 0.298477 10.333 0.666667V2.34851C9.29394 1.11663 7.7387 0.333333 5.99967 0.333333C2.87006 0.333333 0.333008 2.87039 0.333008 6C0.333008 9.12961 2.87006 11.6667 5.99967 11.6667C8.32441 11.6667 10.3207 10.2669 11.1945 8.26691C11.3419 7.92952 11.1879 7.53651 10.8505 7.3891C10.5132 7.24169 10.1201 7.39569 9.97273 7.73309C9.30344 9.26493 7.77558 10.3333 5.99967 10.3333C3.60644 10.3333 1.66634 8.39323 1.66634 6C1.66634 3.60677 3.60644 1.66667 5.99967 1.66667C7.38657 1.66667 8.62218 2.31827 9.41573 3.33333H7.66634C7.29815 3.33333 6.99967 3.63181 6.99967 4C6.99967 4.36819 7.29815 4.66667 7.66634 4.66667H10.569C10.579 4.66689 10.5889 4.66689 10.5989 4.66667H10.9997C11.3679 4.66667 11.6663 4.36819 11.6663 4V0.666667Z" fill="black"/>
</mask>
<g mask="url(#mask0_4509_1409)">
<rect id="&#240;&#159;&#142;&#168; tint" x="-2" y="-2" width="16" height="16" fill="black" fill-opacity="0.8"/>
</g>
</g>
</svg>
