<svg width="20" height="20" viewBox="0 0 20 20" fill="none" xmlns="http://www.w3.org/2000/svg">
<mask id="mask0_4824_14595" style="mask-type:alpha" maskUnits="userSpaceOnUse" x="2" y="2" width="16" height="16">
<path d="M11.0418 6.45825C11.0418 7.03117 10.5731 7.49992 10.0002 7.49992C9.42725 7.49992 8.9585 7.03117 8.9585 6.45825C8.9585 5.88534 9.42725 5.41659 10.0002 5.41659C10.5731 5.41659 11.0418 5.88534 11.0418 6.45825Z" fill="black"/>
<path d="M9.16683 8.33325C8.93671 8.33325 8.75016 8.5198 8.75016 8.74992V9.16658C8.75016 9.3967 8.93671 9.58325 9.16683 9.58325V12.9166H8.75016C8.52004 12.9166 8.3335 13.1031 8.3335 13.3333V13.7499C8.3335 13.98 8.52004 14.1666 8.75016 14.1666H11.2502C11.4803 14.1666 11.6668 13.98 11.6668 13.7499V13.3333C11.6668 13.1031 11.4803 12.9166 11.2502 12.9166H10.8335V8.74992C10.8335 8.5198 10.6469 8.33325 10.4168 8.33325H9.16683Z" fill="black"/>
<path fill-rule="evenodd" clip-rule="evenodd" d="M2.0835 9.99992C2.0835 5.62766 5.62791 2.08325 10.0002 2.08325C14.3724 2.08325 17.9168 5.62766 17.9168 9.99992C17.9168 14.3722 14.3724 17.9166 10.0002 17.9166C5.62791 17.9166 2.0835 14.3722 2.0835 9.99992ZM10.0002 3.74992C6.54838 3.74992 3.75016 6.54814 3.75016 9.99992C3.75016 13.4517 6.54838 16.2499 10.0002 16.2499C13.4519 16.2499 16.2502 13.4517 16.2502 9.99992C16.2502 6.54814 13.4519 3.74992 10.0002 3.74992Z" fill="black"/>
</mask>
<g mask="url(#mask0_4824_14595)">
<rect width="20" height="20" fill="#BFBFBF"/>
</g>
</svg>
