<svg width="32" height="32" viewBox="0 0 32 32" fill="none" xmlns="http://www.w3.org/2000/svg">
<path d="M0 16C0 7.16344 7.16344 0 16 0C24.8366 0 32 7.16344 32 16C32 24.8366 24.8366 32 16 32C7.16344 32 0 24.8366 0 16Z" fill="white"/>
<mask id="mask0_2113_7764" style="mask-type:alpha" maskUnits="userSpaceOnUse" x="11" y="9" width="9" height="14">
<path fill-rule="evenodd" clip-rule="evenodd" d="M18.8336 22.5832C18.5114 22.9053 17.989 22.9053 17.6668 22.5832L11.6668 16.5832C11.3446 16.261 11.3446 15.7386 11.6668 15.4164L17.6668 9.41644C17.989 9.09426 18.5114 9.09426 18.8336 9.41644C19.1557 9.73862 19.1557 10.261 18.8336 10.5832L13.4169 15.9998L18.8336 21.4164C19.1557 21.7386 19.1557 22.261 18.8336 22.5832Z" fill="#333333"/>
</mask>
<g mask="url(#mask0_2113_7764)">
<rect x="7.00024" y="7" width="18" height="18" fill="#333333"/>
</g>
</svg>
