<svg width="16" height="16" viewBox="0 0 16 16" fill="none" xmlns="http://www.w3.org/2000/svg">
<mask id="mask0_2760_31211" style="mask-type:alpha" maskUnits="userSpaceOnUse" x="1" y="1" width="14" height="14">
<path fill-rule="evenodd" clip-rule="evenodd" d="M11.5927 2.05609C11.0733 1.53664 10.2311 1.53664 9.71167 2.05609L2.05657 9.71119C1.80713 9.96063 1.66699 10.299 1.66699 10.6517L1.66699 13.0031C1.66699 13.7377 2.2625 14.3332 2.99711 14.3332H5.34845C5.70122 14.3332 6.03954 14.193 6.28898 13.9436L13.9441 6.28849C14.4635 5.76905 14.4635 4.92686 13.9441 4.40742L11.5927 2.05609ZM10.6522 2.99662L13.0035 5.34795L11.8278 6.52365L9.47651 4.17231L10.6522 2.99662ZM8.77111 4.87771L2.99711 10.6517V13.0031H5.34845L11.1224 7.22905L8.77111 4.87771Z" fill="#333333"/>
</mask>
<g mask="url(#mask0_2760_31211)">
<rect width="16" height="16" fill="#333333"/>
</g>
</svg>
