<svg width="20" height="21" viewBox="0 0 20 21" fill="none" xmlns="http://www.w3.org/2000/svg">
<mask id="mask0_2441_14227" style="mask-type:alpha" maskUnits="userSpaceOnUse" x="4" y="4" width="12" height="13">
<path d="M10.9164 5.42863C10.9164 4.92237 10.5059 4.51196 9.99968 4.51196C9.49342 4.51196 9.08302 4.92237 9.08302 5.42863V9.51196H4.99967C4.49341 9.51196 4.08301 9.92237 4.08301 10.4286C4.08301 10.9349 4.49341 11.3453 4.99967 11.3453H9.08302V15.4286C9.08302 15.9349 9.49342 16.3453 9.99968 16.3453C10.5059 16.3453 10.9164 15.9349 10.9164 15.4286V11.3453H14.9997C15.5059 11.3453 15.9163 10.9349 15.9163 10.4286C15.9163 9.92237 15.5059 9.51196 14.9997 9.51196H10.9164V5.42863Z" fill="#333333"/>
</mask>
<g mask="url(#mask0_2441_14227)">
<rect y="0.428711" width="20" height="20" fill="#333333"/>
</g>
</svg>
