<svg width="78" height="24" viewBox="0 0 78 24" fill="none" xmlns="http://www.w3.org/2000/svg">
<path fill-rule="evenodd" clip-rule="evenodd" d="M20.4289 8.07003C20.4289 12.5239 16.6672 16.1376 12.0249 16.1376C7.38271 16.1376 3.61839 12.5239 3.61839 8.07003C3.61839 3.61363 7.38271 0 12.0249 0C16.6672 0 20.4289 3.61363 20.4289 8.07003ZM16.2399 8.06753C16.2399 5.83433 14.3539 4.02126 12.0249 4.02126C9.696 4.02126 7.80994 5.83433 7.80994 8.06753C7.80994 10.3007 9.696 12.1138 12.0249 12.1138C14.3539 12.1138 16.2399 10.3007 16.2399 8.06753Z" fill="#FA0050"/>
<path d="M18.3735 16.7027V19.4461C19.8662 19.1735 21.3277 18.8134 22.7474 18.3607L24.05 22.1344C20.2674 23.3398 16.227 24 12.025 24C7.82301 24 3.78256 23.3373 0 22.1344L1.30253 18.3607C2.72229 18.8134 4.18374 19.1735 5.67644 19.4461V16.7052L9.93051 17.2579V19.9562C10.6235 19.9962 11.3216 20.0238 12.025 20.0238C12.7284 20.0238 13.4265 19.9962 14.1195 19.9562V17.2579L18.3735 16.7027Z" fill="#FA0050"/>
<path d="M49.0716 0.237365H44.6951V23.4921H49.0716V0.237365Z" fill="#FA0050"/>
<path d="M28.1346 5.48427V1.45801L40.6077 1.46301L40.6181 4.08884C40.6181 8.65777 40.4592 10.2758 39.1306 12.6465C37.8046 15.0123 32.8316 18.2783 29.4997 19.9463L27.6136 16.4052C30.4948 14.9122 33.8241 12.684 35.1214 10.896C36.2142 9.39317 36.1909 7.69062 36.1748 6.51873C36.173 6.38598 36.1712 6.26004 36.1712 6.14198V5.48427H28.1346Z" fill="#FA0050"/>
<path d="M76.503 18.3607C75.0858 18.8134 73.6244 19.1735 72.1317 19.4461V16.7027L67.8776 17.2554V19.9562C67.1846 19.9962 66.4865 20.0238 65.7831 20.0238C65.0797 20.0238 64.3816 19.9962 63.6886 19.9562V17.2579L59.4346 16.7052V19.4461C57.9419 19.1735 56.4804 18.8134 55.0607 18.3607L53.7555 22.1344C57.5381 23.3373 61.5785 24 65.7805 24C69.9825 24 74.0229 23.3398 77.8055 22.1344L76.503 18.3607Z" fill="#FA0050"/>
<path fill-rule="evenodd" clip-rule="evenodd" d="M74.187 8.07003C74.187 12.5239 70.4253 16.1376 65.7831 16.1376C61.1409 16.1376 57.3765 12.5239 57.3765 8.07003C57.3765 3.61363 61.1409 0 65.7831 0C70.4253 0 74.187 3.61363 74.187 8.07003ZM69.9981 8.06753C69.9981 5.83433 68.112 4.02126 65.7831 4.02126C63.4541 4.02126 61.5655 5.83433 61.5681 8.06753C61.5681 10.3007 63.4541 12.1138 65.7831 12.1138C68.112 12.1138 69.9981 10.3007 69.9981 8.06753Z" fill="#FA0050"/>
</svg>
