<svg width="64" height="25" viewBox="0 0 64 25" fill="none" xmlns="http://www.w3.org/2000/svg">
<path d="M14.0469 10.082V16.8438C13.7812 17.1641 13.3711 17.5117 12.8164 17.8867C12.2617 18.2539 11.5469 18.5703 10.6719 18.8359C9.79688 19.1016 8.73828 19.2344 7.49609 19.2344C6.39453 19.2344 5.39062 19.0547 4.48438 18.6953C3.57812 18.3281 2.79688 17.793 2.14062 17.0898C1.49219 16.3867 0.992188 15.5273 0.640625 14.5117C0.289062 13.4883 0.113281 12.3203 0.113281 11.0078V9.94141C0.113281 8.62891 0.28125 7.46094 0.617188 6.4375C0.960938 5.41406 1.44922 4.55078 2.08203 3.84766C2.71484 3.14453 3.46875 2.60937 4.34375 2.24219C5.21875 1.875 6.19141 1.69141 7.26172 1.69141C8.74609 1.69141 9.96484 1.93359 10.918 2.41797C11.8711 2.89453 12.5977 3.55859 13.0977 4.41016C13.6055 5.25391 13.918 6.22266 14.0352 7.31641H10.625C10.5391 6.73828 10.375 6.23438 10.1328 5.80469C9.89062 5.375 9.54297 5.03906 9.08984 4.79688C8.64453 4.55469 8.06641 4.43359 7.35547 4.43359C6.76953 4.43359 6.24609 4.55469 5.78516 4.79688C5.33203 5.03125 4.94922 5.37891 4.63672 5.83984C4.32422 6.30078 4.08594 6.87109 3.92188 7.55078C3.75781 8.23047 3.67578 9.01953 3.67578 9.91797V11.0078C3.67578 11.8984 3.76172 12.6875 3.93359 13.375C4.10547 14.0547 4.35938 14.6289 4.69531 15.0977C5.03906 15.5586 5.46094 15.9062 5.96094 16.1406C6.46094 16.375 7.04297 16.4922 7.70703 16.4922C8.26172 16.4922 8.72266 16.4453 9.08984 16.3516C9.46484 16.2578 9.76562 16.1445 9.99219 16.0117C10.2266 15.8711 10.4062 15.7383 10.5312 15.6133V12.5898H7.32031V10.082H14.0469ZM20.2344 6.32031V19H16.8477V6.32031H20.2344ZM16.6367 3.01562C16.6367 2.52344 16.8086 2.11719 17.1523 1.79688C17.4961 1.47656 17.957 1.31641 18.5352 1.31641C19.1055 1.31641 19.5625 1.47656 19.9062 1.79688C20.2578 2.11719 20.4336 2.52344 20.4336 3.01562C20.4336 3.50781 20.2578 3.91406 19.9062 4.23438C19.5625 4.55469 19.1055 4.71484 18.5352 4.71484C17.957 4.71484 17.4961 4.55469 17.1523 4.23438C16.8086 3.91406 16.6367 3.50781 16.6367 3.01562ZM27.3242 19H23.9258V5.19531C23.9258 4.23438 24.1133 3.42578 24.4883 2.76953C24.8711 2.10547 25.4062 1.60547 26.0938 1.26953C26.7891 0.925781 27.6133 0.753906 28.5664 0.753906C28.8789 0.753906 29.1797 0.777344 29.4688 0.824219C29.7578 0.863281 30.0391 0.914063 30.3125 0.976562L30.2773 3.51953C30.1289 3.48047 29.9727 3.45312 29.8086 3.4375C29.6445 3.42188 29.4531 3.41406 29.2344 3.41406C28.8281 3.41406 28.4805 3.48438 28.1914 3.625C27.9102 3.75781 27.6953 3.95703 27.5469 4.22266C27.3984 4.48828 27.3242 4.8125 27.3242 5.19531V19ZM29.8555 6.32031V8.71094H22.0391V6.32031H29.8555ZM37.8359 6.32031V8.71094H30.4531V6.32031H37.8359ZM32.2812 3.19141H35.6562V15.1797C35.6562 15.5469 35.7031 15.8281 35.7969 16.0234C35.8984 16.2188 36.0469 16.3555 36.2422 16.4336C36.4375 16.5039 36.6836 16.5391 36.9805 16.5391C37.1914 16.5391 37.3789 16.5312 37.543 16.5156C37.7148 16.4922 37.8594 16.4688 37.9766 16.4453L37.9883 18.9297C37.6992 19.0234 37.3867 19.0977 37.0508 19.1523C36.7148 19.207 36.3438 19.2344 35.9375 19.2344C35.1953 19.2344 34.5469 19.1133 33.9922 18.8711C33.4453 18.6211 33.0234 18.2227 32.7266 17.6758C32.4297 17.1289 32.2812 16.4102 32.2812 15.5195V3.19141ZM43.5195 17.5703L46.8828 6.32031H50.5039L45.4062 20.9102C45.2969 21.2305 45.1484 21.5742 44.9609 21.9414C44.7812 22.3086 44.5352 22.6562 44.2227 22.9844C43.918 23.3203 43.5312 23.5938 43.0625 23.8047C42.6016 24.0156 42.0352 24.1211 41.3633 24.1211C41.043 24.1211 40.7812 24.1016 40.5781 24.0625C40.375 24.0234 40.1328 23.9688 39.8516 23.8984V21.4258C39.9375 21.4258 40.0273 21.4258 40.1211 21.4258C40.2148 21.4336 40.3047 21.4375 40.3906 21.4375C40.8359 21.4375 41.1992 21.3867 41.4805 21.2852C41.7617 21.1836 41.9883 21.0273 42.1602 20.8164C42.332 20.6133 42.4688 20.3477 42.5703 20.0195L43.5195 17.5703ZM42.1133 6.32031L44.8672 15.5078L45.3477 19.082L43.0508 19.3281L38.4922 6.32031H42.1133ZM51.125 12.7891V12.543C51.125 11.6133 51.2578 10.7578 51.5234 9.97656C51.7891 9.1875 52.1758 8.50391 52.6836 7.92578C53.1914 7.34766 53.8164 6.89844 54.5586 6.57812C55.3008 6.25 56.1523 6.08594 57.1133 6.08594C58.0742 6.08594 58.9297 6.25 59.6797 6.57812C60.4297 6.89844 61.0586 7.34766 61.5664 7.92578C62.082 8.50391 62.4727 9.1875 62.7383 9.97656C63.0039 10.7578 63.1367 11.6133 63.1367 12.543V12.7891C63.1367 13.7109 63.0039 14.5664 62.7383 15.3555C62.4727 16.1367 62.082 16.8203 61.5664 17.4062C61.0586 17.9844 60.4336 18.4336 59.6914 18.7539C58.9492 19.0742 58.0977 19.2344 57.1367 19.2344C56.1758 19.2344 55.3203 19.0742 54.5703 18.7539C53.8281 18.4336 53.1992 17.9844 52.6836 17.4062C52.1758 16.8203 51.7891 16.1367 51.5234 15.3555C51.2578 14.5664 51.125 13.7109 51.125 12.7891ZM54.5 12.543V12.7891C54.5 13.3203 54.5469 13.8164 54.6406 14.2773C54.7344 14.7383 54.8828 15.1445 55.0859 15.4961C55.2969 15.8398 55.5703 16.1094 55.9062 16.3047C56.2422 16.5 56.6523 16.5977 57.1367 16.5977C57.6055 16.5977 58.0078 16.5 58.3438 16.3047C58.6797 16.1094 58.9492 15.8398 59.1523 15.4961C59.3555 15.1445 59.5039 14.7383 59.5977 14.2773C59.6992 13.8164 59.75 13.3203 59.75 12.7891V12.543C59.75 12.0273 59.6992 11.543 59.5977 11.0898C59.5039 10.6289 59.3516 10.2227 59.1406 9.87109C58.9375 9.51172 58.668 9.23047 58.332 9.02734C57.9961 8.82422 57.5898 8.72266 57.1133 8.72266C56.6367 8.72266 56.2305 8.82422 55.8945 9.02734C55.5664 9.23047 55.2969 9.51172 55.0859 9.87109C54.8828 10.2227 54.7344 10.6289 54.6406 11.0898C54.5469 11.543 54.5 12.0273 54.5 12.543Z" fill="#F5F5F5"/>
</svg>
